<svg xmlns="http://www.w3.org/2000/svg" viewBox="0 0 750 500"><g id="freepik--background-complete--inject-6"><rect x="173.48" y="263.1" width="459.7" height="203.83" style="fill:#f5f5f5"></rect><rect x="408.1" y="320.69" width="7.36" height="148.05" style="fill:#ebebeb"></rect><path d="M385.65,305.86h54.54a11.21,11.21,0,0,1,11.21,11.21v4.21a0,0,0,0,1,0,0h-77a0,0,0,0,1,0,0v-4.21A11.21,11.21,0,0,1,385.65,305.86Z" style="fill:#e0e0e0"></path><rect x="375.85" y="326.28" width="73.97" height="2.52" style="fill:#e0e0e0"></rect><path d="M450.56,469.91h-2v-9.42A30.5,30.5,0,0,0,418.09,430H405.47A30.5,30.5,0,0,0,375,460.49v9.42h-2v-9.42A32.49,32.49,0,0,1,405.47,428h12.62a32.5,32.5,0,0,1,32.47,32.46Z" style="fill:#ebebeb"></path><rect x="161.73" y="257.49" width="484.36" height="14.76" style="fill:#e0e0e0"></rect><rect x="171.72" y="116.18" width="122.14" height="9.44" style="fill:#ebebeb"></rect><rect x="181.42" y="122.48" width="5.29" height="20.78" style="fill:#ebebeb"></rect><rect x="278.03" y="122.48" width="4.29" height="20.78" style="fill:#ebebeb"></rect><path d="M190.66,74.12l-.48,7.6A9.37,9.37,0,0,1,189,86.34l-2.58,4.47a2.07,2.07,0,0,0-.26,1v23.66a.61.61,0,0,0,.6.61H200a.61.61,0,0,0,.61-.61V92a2.05,2.05,0,0,0-.29-1l-2.59-4.6a10.6,10.6,0,0,1-1.19-4.54l-.9-7.64Z" style="fill:#e0e0e0"></path><polyline points="200.63 95.66 191.66 95.66 191.66 111.41 200.63 111.41" style="fill:#fafafa"></polyline><rect x="189.83" y="72.05" width="6.67" height="2.12" rx="0.93" style="fill:#e0e0e0"></rect><polygon points="194.35 81.8 190.2 81.8 190.47 77.14 194.35 77.14 194.35 81.8" style="fill:#fafafa"></polygon><path d="M200.63,103.53a7,7,0,0,1-.2-.77,3.27,3.27,0,0,0-1.2-1.67,3.08,3.08,0,0,0-2.89-.39,3,3,0,0,0,0,5.67,3.08,3.08,0,0,0,2.89-.39,3.25,3.25,0,0,0,1.2-1.68,7,7,0,0,1,.2-.77,1.48,1.48,0,0,1,0,.82,3.25,3.25,0,0,1-1.18,1.92,3.41,3.41,0,0,1-3.27.55,3.48,3.48,0,0,1,0-6.57,3.41,3.41,0,0,1,3.27.55,3.31,3.31,0,0,1,1.18,1.91C200.72,103.24,200.66,103.54,200.63,103.53Z" style="fill:#e0e0e0"></path><path d="M200.63,96.33a14.94,14.94,0,0,1-2.31.13c-1.46,0-3.55.07-6,.1l.23-.23c0,2.14,0,4.58,0,7.18s0,5,0,7.18l-.23-.23c2.49,0,4.58.05,6,.09a14,14,0,0,1,2.31.14,14,14,0,0,1-2.31.14c-1.46,0-3.55.07-6,.09h-.23v-.23c0-2.14,0-4.59,0-7.18s0-5,0-7.18v-.24h.23c2.49,0,4.58.05,6,.09A14,14,0,0,1,200.63,96.33Z" style="fill:#e0e0e0"></path><path d="M193.32,78.37c0,.14-.63.26-1.42.26s-1.42-.12-1.42-.26.64-.26,1.42-.26S193.32,78.22,193.32,78.37Z" style="fill:#e0e0e0"></path><path d="M193.32,80.05c0,.15-.63.26-1.42.26s-1.42-.11-1.42-.26.64-.26,1.42-.26S193.32,79.91,193.32,80.05Z" style="fill:#e0e0e0"></path><path d="M212.58,74.12l-.48,7.6a9.37,9.37,0,0,1-1.23,4.62l-2.58,4.47a2.08,2.08,0,0,0-.27,1v23.66a.62.62,0,0,0,.61.61h13.31a.61.61,0,0,0,.61-.61V92a2.05,2.05,0,0,0-.29-1l-2.59-4.6a10.74,10.74,0,0,1-1.2-4.54l-.89-7.64Z" style="fill:#e0e0e0"></path><polyline points="222.55 95.66 213.58 95.66 213.58 111.41 222.55 111.41" style="fill:#fafafa"></polyline><rect x="211.75" y="72.05" width="6.67" height="2.12" rx="0.93" style="fill:#e0e0e0"></rect><polygon points="216.27 81.8 212.12 81.8 212.39 77.14 216.27 77.14 216.27 81.8" style="fill:#fafafa"></polygon><path d="M222.55,103.53a7,7,0,0,1-.2-.77,3.27,3.27,0,0,0-1.2-1.67,3.08,3.08,0,0,0-2.89-.39,3,3,0,0,0,0,5.67,3.08,3.08,0,0,0,2.89-.39,3.25,3.25,0,0,0,1.2-1.68,7,7,0,0,1,.2-.77,1.61,1.61,0,0,1,0,.82,3.3,3.3,0,0,1-1.18,1.92,3.41,3.41,0,0,1-3.27.55,3.48,3.48,0,0,1,0-6.57,3.41,3.41,0,0,1,3.27.55,3.31,3.31,0,0,1,1.18,1.91A1.57,1.57,0,0,1,222.55,103.53Z" style="fill:#e0e0e0"></path><path d="M222.55,96.33a14.94,14.94,0,0,1-2.31.13c-1.47,0-3.55.07-6.05.1l.23-.23c0,2.14,0,4.58,0,7.18s0,5,0,7.18l-.23-.23c2.5,0,4.58.05,6.05.09a14,14,0,0,1,2.31.14,14,14,0,0,1-2.31.14c-1.47,0-3.55.07-6.05.09H214v-.23c0-2.14,0-4.59,0-7.18s0-5,0-7.18v-.24h.23c2.5,0,4.58.05,6.05.09A14,14,0,0,1,222.55,96.33Z" style="fill:#e0e0e0"></path><path d="M215.24,78.37c0,.14-.64.26-1.42.26s-1.42-.12-1.42-.26.63-.26,1.42-.26S215.24,78.22,215.24,78.37Z" style="fill:#e0e0e0"></path><path d="M215.24,80.05c0,.15-.64.26-1.42.26s-1.42-.11-1.42-.26.63-.26,1.42-.26S215.24,79.91,215.24,80.05Z" style="fill:#e0e0e0"></path><path d="M229.08,74.12l-.48,7.6a9.37,9.37,0,0,1-1.23,4.62l-2.58,4.47a2.07,2.07,0,0,0-.26,1v23.66a.61.61,0,0,0,.6.61h13.31a.61.61,0,0,0,.61-.61V92a2.05,2.05,0,0,0-.29-1l-2.59-4.6A10.6,10.6,0,0,1,235,81.76l-.9-7.64Z" style="fill:#e0e0e0"></path><polyline points="239.05 95.66 230.08 95.66 230.08 111.41 239.05 111.41" style="fill:#fafafa"></polyline><rect x="228.25" y="72.05" width="6.67" height="2.12" rx="0.93" style="fill:#e0e0e0"></rect><polygon points="232.77 81.8 228.62 81.8 228.89 77.14 232.77 77.14 232.77 81.8" style="fill:#fafafa"></polygon><path d="M239.05,103.53a7,7,0,0,1-.2-.77,3.27,3.27,0,0,0-1.2-1.67,3.08,3.08,0,0,0-2.89-.39,3,3,0,0,0,0,5.67,3.08,3.08,0,0,0,2.89-.39,3.25,3.25,0,0,0,1.2-1.68,7,7,0,0,1,.2-.77,1.48,1.48,0,0,1,0,.82,3.3,3.3,0,0,1-1.18,1.92,3.41,3.41,0,0,1-3.27.55,3.48,3.48,0,0,1,0-6.57,3.41,3.41,0,0,1,3.27.55,3.31,3.31,0,0,1,1.18,1.91C239.14,103.24,239.08,103.54,239.05,103.53Z" style="fill:#e0e0e0"></path><path d="M239.05,96.33a14.94,14.94,0,0,1-2.31.13c-1.46,0-3.55.07-6,.1l.23-.23c0,2.14,0,4.58,0,7.18s0,5,0,7.18l-.23-.23c2.49,0,4.58.05,6,.09a14,14,0,0,1,2.31.14,14,14,0,0,1-2.31.14c-1.46,0-3.55.07-6,.09h-.23v-.23c0-2.14,0-4.59,0-7.18s0-5,0-7.18v-.24h.23c2.49,0,4.58.05,6,.09A14,14,0,0,1,239.05,96.33Z" style="fill:#e0e0e0"></path><path d="M231.74,78.37c0,.14-.63.26-1.42.26s-1.42-.12-1.42-.26.64-.26,1.42-.26S231.74,78.22,231.74,78.37Z" style="fill:#e0e0e0"></path><path d="M231.74,80.05c0,.15-.63.26-1.42.26s-1.42-.11-1.42-.26.64-.26,1.42-.26S231.74,79.91,231.74,80.05Z" style="fill:#e0e0e0"></path><path d="M261,74.12l-.47,7.6a9.27,9.27,0,0,1-1.24,4.62l-2.57,4.47a2,2,0,0,0-.27,1v23.66a.61.61,0,0,0,.61.61h13.31a.62.62,0,0,0,.61-.61V92a2,2,0,0,0-.3-1l-2.59-4.6a10.74,10.74,0,0,1-1.19-4.54L266,74.12Z" style="fill:#e0e0e0"></path><polyline points="271 95.66 262.03 95.66 262.03 111.41 271 111.41" style="fill:#fafafa"></polyline><rect x="260.19" y="72.05" width="6.67" height="2.12" rx="0.93" style="fill:#e0e0e0"></rect><polygon points="264.72 81.8 260.56 81.8 260.83 77.14 264.72 77.14 264.72 81.8" style="fill:#fafafa"></polygon><path d="M271,103.53c-.05,0-.06-.29-.2-.77a3.34,3.34,0,0,0-1.2-1.67,3.09,3.09,0,0,0-2.89-.39,3,3,0,0,0,0,5.67,3.09,3.09,0,0,0,2.89-.39,3.31,3.31,0,0,0,1.2-1.68c.14-.48.15-.77.2-.77a1.56,1.56,0,0,1,0,.82,3.22,3.22,0,0,1-1.17,1.92,3.43,3.43,0,0,1-3.28.55,3.49,3.49,0,0,1,0-6.57,3.43,3.43,0,0,1,3.28.55,3.23,3.23,0,0,1,1.17,1.91A1.53,1.53,0,0,1,271,103.53Z" style="fill:#e0e0e0"></path><path d="M271,96.33a15.09,15.09,0,0,1-2.31.13c-1.47,0-3.56.07-6.05.1l.23-.23c0,2.14,0,4.58,0,7.18s0,5,0,7.18l-.23-.23c2.49,0,4.58.05,6.05.09a14.14,14.14,0,0,1,2.31.14,14.14,14.14,0,0,1-2.31.14c-1.47,0-3.56.07-6.05.09h-.23v-.23c0-2.14,0-4.59,0-7.18s0-5,0-7.18v-.24h.23c2.49,0,4.58.05,6.05.09A14.14,14.14,0,0,1,271,96.33Z" style="fill:#e0e0e0"></path><path d="M263.69,78.37c0,.14-.64.26-1.42.26s-1.42-.12-1.42-.26.63-.26,1.42-.26S263.69,78.22,263.69,78.37Z" style="fill:#e0e0e0"></path><path d="M263.69,80.05c0,.15-.64.26-1.42.26s-1.42-.11-1.42-.26.63-.26,1.42-.26S263.69,79.91,263.69,80.05Z" style="fill:#e0e0e0"></path><path d="M556.27,214.1l-.47,7.6a9.21,9.21,0,0,1-1.24,4.61L552,230.79a2,2,0,0,0-.27,1v23.65a.61.61,0,0,0,.61.61h13.31a.61.61,0,0,0,.61-.61V231.92a1.93,1.93,0,0,0-.3-1l-2.59-4.6a10.78,10.78,0,0,1-1.19-4.54l-.89-7.64Z" style="fill:#e0e0e0"></path><polyline points="566.25 235.63 557.28 235.63 557.28 251.39 566.25 251.39" style="fill:#fafafa"></polyline><rect x="555.44" y="212.03" width="6.67" height="2.12" rx="0.93" style="fill:#e0e0e0"></rect><polygon points="559.97 221.78 555.82 221.78 556.09 217.12 559.97 217.12 559.97 221.78" style="fill:#fafafa"></polygon><path d="M566.25,243.51s-.06-.29-.2-.77a3.29,3.29,0,0,0-1.2-1.67,3,3,0,1,0,0,4.88,3.29,3.29,0,0,0,1.2-1.67c.14-.48.15-.77.2-.77a1.54,1.54,0,0,1,0,.82,3.22,3.22,0,0,1-1.17,1.92,3.44,3.44,0,0,1-3.27.55,3.49,3.49,0,0,1,0-6.58,3.44,3.44,0,0,1,3.27.55,3.22,3.22,0,0,1,1.17,1.92A1.54,1.54,0,0,1,566.25,243.51Z" style="fill:#e0e0e0"></path><path d="M566.25,236.3a14,14,0,0,1-2.31.14c-1.47,0-3.56.07-6.05.09l.23-.23c0,2.15,0,4.59,0,7.18s0,5,0,7.19l-.23-.24c2.49,0,4.58.06,6.05.1a14,14,0,0,1,2.31.14,14.94,14.94,0,0,1-2.31.13c-1.47,0-3.56.07-6.05.1h-.23v-.23c0-2.15,0-4.59,0-7.19s0-5,0-7.18v-.23h.23c2.49,0,4.58.06,6.05.1A14.94,14.94,0,0,1,566.25,236.3Z" style="fill:#e0e0e0"></path><path d="M558.94,218.34c0,.15-.64.26-1.42.26s-1.42-.11-1.42-.26.63-.26,1.42-.26S558.94,218.2,558.94,218.34Z" style="fill:#e0e0e0"></path><path d="M558.94,220c0,.14-.64.26-1.42.26s-1.42-.12-1.42-.26.63-.26,1.42-.26S558.94,219.89,558.94,220Z" style="fill:#e0e0e0"></path><rect x="376.14" y="112.42" width="230.03" height="9.44" style="fill:#ebebeb"></rect><rect x="385.83" y="118.72" width="5.29" height="20.78" style="fill:#ebebeb"></rect><rect x="484.59" y="118.72" width="4.29" height="20.78" style="fill:#ebebeb"></rect><rect x="590.43" y="118.72" width="4.29" height="20.78" style="fill:#ebebeb"></rect><path d="M397.64,70.36l-.48,7.6a9.37,9.37,0,0,1-1.23,4.62l-2.58,4.48a2,2,0,0,0-.27,1v23.66a.61.61,0,0,0,.61.61H407a.61.61,0,0,0,.61-.61V88.19a1.91,1.91,0,0,0-.3-1l-2.58-4.6a10.79,10.79,0,0,1-1.2-4.55l-.89-7.64Z" style="fill:#e0e0e0"></path><polyline points="407.61 91.9 398.64 91.9 398.64 107.65 407.61 107.65" style="fill:#fafafa"></polyline><rect x="396.81" y="68.29" width="6.67" height="2.12" rx="0.93" style="fill:#e0e0e0"></rect><polygon points="401.33 78.04 397.18 78.04 397.45 73.38 401.33 73.38 401.33 78.04" style="fill:#fafafa"></polygon><path d="M407.61,99.78a6.83,6.83,0,0,1-.2-.78,3.27,3.27,0,0,0-1.2-1.67,3.08,3.08,0,0,0-2.89-.39,3,3,0,0,0,0,5.67,3.08,3.08,0,0,0,2.89-.39,3.27,3.27,0,0,0,1.2-1.67c.15-.48.15-.78.2-.77a1.57,1.57,0,0,1,0,.82,3.31,3.31,0,0,1-1.18,1.91,3.41,3.41,0,0,1-3.27.55,3.48,3.48,0,0,1,0-6.57,3.41,3.41,0,0,1,3.27.55A3.31,3.31,0,0,1,407.61,99,1.64,1.64,0,0,1,407.61,99.78Z" style="fill:#e0e0e0"></path><path d="M407.61,92.57a14.94,14.94,0,0,1-2.31.13c-1.47,0-3.55.08-6.05.1l.23-.23c0,2.14,0,4.59,0,7.18s0,5,0,7.18l-.23-.23c2.5,0,4.58.06,6.05.09a14,14,0,0,1,2.31.14,14,14,0,0,1-2.31.14c-1.47,0-3.55.07-6.05.09H399v-.23c0-2.14,0-4.59,0-7.18s0-5,0-7.18v-.24h.23c2.5,0,4.58,0,6.05.09A14,14,0,0,1,407.61,92.57Z" style="fill:#e0e0e0"></path><path d="M400.3,74.61c0,.14-.64.26-1.42.26s-1.42-.12-1.42-.26.63-.26,1.42-.26S400.3,74.46,400.3,74.61Z" style="fill:#e0e0e0"></path><path d="M400.3,76.3c0,.14-.64.26-1.42.26s-1.42-.12-1.42-.26.63-.26,1.42-.26S400.3,76.15,400.3,76.3Z" style="fill:#e0e0e0"></path><path d="M418.87,70.36l-.48,7.6a9.26,9.26,0,0,1-1.23,4.62l-2.58,4.48a2,2,0,0,0-.26,1v23.66a.61.61,0,0,0,.61.61h13.3a.61.61,0,0,0,.61-.61V88.19a2,2,0,0,0-.29-1L426,82.55A10.65,10.65,0,0,1,424.77,78l-.9-7.64Z" style="fill:#e0e0e0"></path><polyline points="428.84 91.9 419.87 91.9 419.87 107.65 428.84 107.65" style="fill:#fafafa"></polyline><rect x="418.04" y="68.29" width="6.67" height="2.12" rx="0.93" style="fill:#e0e0e0"></rect><polygon points="422.56 78.04 418.41 78.04 418.68 73.38 422.56 73.38 422.56 78.04" style="fill:#fafafa"></polygon><path d="M428.84,99.78s0-.29-.2-.78a3.22,3.22,0,0,0-1.2-1.67,3,3,0,1,0,0,4.89,3.22,3.22,0,0,0,1.2-1.67c.15-.48.16-.78.2-.77s.09.29,0,.82a3.23,3.23,0,0,1-1.17,1.91,3.43,3.43,0,0,1-3.28.55,3.48,3.48,0,0,1,0-6.57,3.43,3.43,0,0,1,3.28.55A3.23,3.23,0,0,1,428.84,99,1.51,1.51,0,0,1,428.84,99.78Z" style="fill:#e0e0e0"></path><path d="M428.84,92.57a14.94,14.94,0,0,1-2.31.13c-1.46,0-3.55.08-6,.1l.23-.23c0,2.14,0,4.59,0,7.18s0,5,0,7.18l-.23-.23c2.49,0,4.58.06,6,.09a14,14,0,0,1,2.31.14,14,14,0,0,1-2.31.14c-1.46,0-3.55.07-6,.09h-.23v-.23c0-2.14,0-4.59,0-7.18s0-5,0-7.18v-.24h.23c2.49,0,4.58,0,6,.09A14,14,0,0,1,428.84,92.57Z" style="fill:#e0e0e0"></path><path d="M421.54,74.61c0,.14-.64.26-1.43.26s-1.42-.12-1.42-.26.64-.26,1.42-.26S421.54,74.46,421.54,74.61Z" style="fill:#e0e0e0"></path><path d="M421.54,76.3c0,.14-.64.26-1.43.26s-1.42-.12-1.42-.26.64-.26,1.42-.26S421.54,76.15,421.54,76.3Z" style="fill:#e0e0e0"></path><path d="M460.06,70.36l-.48,7.6a9.26,9.26,0,0,1-1.23,4.62l-2.58,4.48a2,2,0,0,0-.26,1v23.66a.61.61,0,0,0,.61.61h13.3a.61.61,0,0,0,.61-.61V88.19a2,2,0,0,0-.29-1l-2.59-4.6A10.65,10.65,0,0,1,466,78l-.9-7.64Z" style="fill:#e0e0e0"></path><polyline points="470.03 91.9 461.06 91.9 461.06 107.65 470.03 107.65" style="fill:#fafafa"></polyline><rect x="459.23" y="68.29" width="6.67" height="2.12" rx="0.93" style="fill:#e0e0e0"></rect><polygon points="463.75 78.04 459.6 78.04 459.87 73.38 463.75 73.38 463.75 78.04" style="fill:#fafafa"></polygon><path d="M470,99.78s0-.29-.2-.78a3.22,3.22,0,0,0-1.2-1.67,3,3,0,1,0,0,4.89,3.22,3.22,0,0,0,1.2-1.67c.15-.48.16-.78.2-.77s.09.29,0,.82a3.23,3.23,0,0,1-1.17,1.91,3.43,3.43,0,0,1-3.28.55,3.48,3.48,0,0,1,0-6.57,3.43,3.43,0,0,1,3.28.55A3.23,3.23,0,0,1,470,99,1.51,1.51,0,0,1,470,99.78Z" style="fill:#e0e0e0"></path><path d="M470,92.57a14.94,14.94,0,0,1-2.31.13c-1.46,0-3.55.08-6,.1l.23-.23c0,2.14,0,4.59,0,7.18s0,5,0,7.18l-.23-.23c2.49,0,4.58.06,6,.09a14,14,0,0,1,2.31.14,14,14,0,0,1-2.31.14c-1.46,0-3.55.07-6,.09h-.23v-.23c0-2.14,0-4.59,0-7.18s0-5,0-7.18v-.24h.23c2.49,0,4.58,0,6,.09A14,14,0,0,1,470,92.57Z" style="fill:#e0e0e0"></path><path d="M462.72,74.61c0,.14-.63.26-1.42.26s-1.42-.12-1.42-.26.64-.26,1.42-.26S462.72,74.46,462.72,74.61Z" style="fill:#e0e0e0"></path><path d="M462.72,76.3c0,.14-.63.26-1.42.26s-1.42-.12-1.42-.26.64-.26,1.42-.26S462.72,76.15,462.72,76.3Z" style="fill:#e0e0e0"></path><path d="M480,70.36l-.48,7.6a9.27,9.27,0,0,1-1.24,4.62l-2.57,4.48a2,2,0,0,0-.27,1v23.66a.61.61,0,0,0,.61.61h13.31a.61.61,0,0,0,.61-.61V88.19a1.91,1.91,0,0,0-.3-1l-2.58-4.6a10.64,10.64,0,0,1-1.2-4.55L485,70.36Z" style="fill:#e0e0e0"></path><polyline points="489.99 91.9 481.02 91.9 481.02 107.65 489.99 107.65" style="fill:#fafafa"></polyline><rect x="479.19" y="68.29" width="6.67" height="2.12" rx="0.93" style="fill:#e0e0e0"></rect><polygon points="483.71 78.04 479.56 78.04 479.83 73.38 483.71 73.38 483.71 78.04" style="fill:#fafafa"></polygon><path d="M490,99.78a6.83,6.83,0,0,1-.2-.78,3.27,3.27,0,0,0-1.2-1.67,3.08,3.08,0,0,0-2.89-.39,3,3,0,0,0,0,5.67,3.08,3.08,0,0,0,2.89-.39,3.27,3.27,0,0,0,1.2-1.67c.15-.48.15-.78.2-.77a1.57,1.57,0,0,1,0,.82,3.31,3.31,0,0,1-1.18,1.91,3.41,3.41,0,0,1-3.27.55,3.48,3.48,0,0,1,0-6.57,3.41,3.41,0,0,1,3.27.55A3.23,3.23,0,0,1,490,99,1.59,1.59,0,0,1,490,99.78Z" style="fill:#e0e0e0"></path><path d="M490,92.57a14.94,14.94,0,0,1-2.31.13c-1.47,0-3.56.08-6.05.1l.23-.23c0,2.14,0,4.59,0,7.18s0,5,0,7.18l-.23-.23c2.5,0,4.58.06,6.05.09a14,14,0,0,1,2.31.14,14,14,0,0,1-2.31.14c-1.47,0-3.55.07-6.05.09h-.23v-.23c0-2.14,0-4.59,0-7.18s0-5,0-7.18v-.24h.23c2.49,0,4.58,0,6.05.09A14,14,0,0,1,490,92.57Z" style="fill:#e0e0e0"></path><path d="M482.68,74.61c0,.14-.64.26-1.42.26s-1.42-.12-1.42-.26.63-.26,1.42-.26S482.68,74.46,482.68,74.61Z" style="fill:#e0e0e0"></path><path d="M482.68,76.3c0,.14-.64.26-1.42.26s-1.42-.12-1.42-.26.63-.26,1.42-.26S482.68,76.15,482.68,76.3Z" style="fill:#e0e0e0"></path><path d="M502.34,70.36l-.48,7.6a9.26,9.26,0,0,1-1.23,4.62l-2.58,4.48a2,2,0,0,0-.26,1v23.66a.6.6,0,0,0,.6.61H511.7a.61.61,0,0,0,.61-.61V88.19a2,2,0,0,0-.29-1l-2.59-4.6A10.65,10.65,0,0,1,508.24,78l-.9-7.64Z" style="fill:#e0e0e0"></path><polyline points="512.31 91.9 503.34 91.9 503.34 107.65 512.31 107.65" style="fill:#fafafa"></polyline><rect x="501.51" y="68.29" width="6.67" height="2.12" rx="0.93" style="fill:#e0e0e0"></rect><polygon points="506.03 78.04 501.88 78.04 502.15 73.38 506.03 73.38 506.03 78.04" style="fill:#fafafa"></polygon><path d="M512.31,99.78s0-.29-.2-.78a3.22,3.22,0,0,0-1.2-1.67,3,3,0,1,0,0,4.89,3.22,3.22,0,0,0,1.2-1.67c.15-.48.16-.78.2-.77s.09.29,0,.82a3.28,3.28,0,0,1-1.17,1.91,3.43,3.43,0,0,1-3.28.55,3.48,3.48,0,0,1,0-6.57,3.43,3.43,0,0,1,3.28.55A3.28,3.28,0,0,1,512.31,99,1.51,1.51,0,0,1,512.31,99.78Z" style="fill:#e0e0e0"></path><path d="M512.31,92.57a14.94,14.94,0,0,1-2.31.13c-1.46,0-3.55.08-6,.1l.23-.23c0,2.14,0,4.59,0,7.18s0,5,0,7.18l-.23-.23c2.49,0,4.58.06,6,.09a14,14,0,0,1,2.31.14,14,14,0,0,1-2.31.14c-1.46,0-3.55.07-6,.09h-.23v-.23c0-2.14,0-4.59,0-7.18s0-5,0-7.18v-.24H504c2.49,0,4.58,0,6,.09A14,14,0,0,1,512.31,92.57Z" style="fill:#e0e0e0"></path><path d="M505,74.61c0,.14-.63.26-1.42.26s-1.42-.12-1.42-.26.64-.26,1.42-.26S505,74.46,505,74.61Z" style="fill:#e0e0e0"></path><path d="M505,76.3c0,.14-.63.26-1.42.26s-1.42-.12-1.42-.26.64-.26,1.42-.26S505,76.15,505,76.3Z" style="fill:#e0e0e0"></path><path d="M537.56,70.36l-.48,7.6a9.26,9.26,0,0,1-1.23,4.62l-2.58,4.48a2,2,0,0,0-.26,1v23.66a.61.61,0,0,0,.61.61h13.3a.61.61,0,0,0,.61-.61V88.19a2,2,0,0,0-.29-1l-2.59-4.6A10.65,10.65,0,0,1,543.46,78l-.9-7.64Z" style="fill:#e0e0e0"></path><polyline points="547.53 91.9 538.56 91.9 538.56 107.65 547.53 107.65" style="fill:#fafafa"></polyline><rect x="536.73" y="68.29" width="6.67" height="2.12" rx="0.93" style="fill:#e0e0e0"></rect><polygon points="541.25 78.04 537.1 78.04 537.37 73.38 541.25 73.38 541.25 78.04" style="fill:#fafafa"></polygon><path d="M547.53,99.78s0-.29-.2-.78a3.22,3.22,0,0,0-1.2-1.67,3,3,0,1,0,0,4.89,3.22,3.22,0,0,0,1.2-1.67c.15-.48.16-.78.2-.77s.09.29,0,.82a3.23,3.23,0,0,1-1.17,1.91,3.43,3.43,0,0,1-3.28.55,3.48,3.48,0,0,1,0-6.57,3.43,3.43,0,0,1,3.28.55A3.23,3.23,0,0,1,547.53,99,1.51,1.51,0,0,1,547.53,99.78Z" style="fill:#e0e0e0"></path><path d="M547.53,92.57a14.94,14.94,0,0,1-2.31.13c-1.46,0-3.55.08-6,.1l.23-.23c0,2.14,0,4.59,0,7.18s0,5,0,7.18l-.23-.23c2.49,0,4.58.06,6,.09a14,14,0,0,1,2.31.14,14,14,0,0,1-2.31.14c-1.46,0-3.55.07-6,.09H539v-.23c0-2.14,0-4.59,0-7.18s0-5,0-7.18v-.24h.23c2.49,0,4.58,0,6,.09A14,14,0,0,1,547.53,92.57Z" style="fill:#e0e0e0"></path><path d="M540.23,74.61c0,.14-.64.26-1.43.26s-1.42-.12-1.42-.26.64-.26,1.42-.26S540.23,74.46,540.23,74.61Z" style="fill:#e0e0e0"></path><path d="M540.23,76.3c0,.14-.64.26-1.43.26s-1.42-.12-1.42-.26S538,76,538.8,76,540.23,76.15,540.23,76.3Z" style="fill:#e0e0e0"></path><path d="M559.34,70.36l-.48,7.6a9.37,9.37,0,0,1-1.23,4.62l-2.58,4.48a2,2,0,0,0-.26,1v23.66a.6.6,0,0,0,.6.61H568.7a.61.61,0,0,0,.61-.61V88.19a2,2,0,0,0-.29-1l-2.59-4.6A10.65,10.65,0,0,1,565.24,78l-.9-7.64Z" style="fill:#e0e0e0"></path><polyline points="569.31 91.9 560.34 91.9 560.34 107.65 569.31 107.65" style="fill:#fafafa"></polyline><rect x="558.51" y="68.29" width="6.67" height="2.12" rx="0.93" style="fill:#e0e0e0"></rect><polygon points="563.03 78.04 558.88 78.04 559.15 73.38 563.03 73.38 563.03 78.04" style="fill:#fafafa"></polygon><path d="M569.31,99.78a6.83,6.83,0,0,1-.2-.78,3.27,3.27,0,0,0-1.2-1.67,3.08,3.08,0,0,0-2.89-.39,3,3,0,0,0,0,5.67,3.08,3.08,0,0,0,2.89-.39,3.27,3.27,0,0,0,1.2-1.67c.15-.48.15-.78.2-.77s.09.29,0,.82a3.26,3.26,0,0,1-1.18,1.91,3.41,3.41,0,0,1-3.27.55,3.48,3.48,0,0,1,0-6.57,3.41,3.41,0,0,1,3.27.55A3.31,3.31,0,0,1,569.31,99,1.51,1.51,0,0,1,569.31,99.78Z" style="fill:#e0e0e0"></path><path d="M569.31,92.57a14.94,14.94,0,0,1-2.31.13c-1.46,0-3.55.08-6,.1l.23-.23c0,2.14,0,4.59,0,7.18s0,5,0,7.18l-.23-.23c2.49,0,4.58.06,6,.09a14,14,0,0,1,2.31.14,14,14,0,0,1-2.31.14c-1.46,0-3.55.07-6,.09h-.23v-.23c0-2.14,0-4.59,0-7.18s0-5,0-7.18v-.24H561c2.49,0,4.58,0,6,.09A14,14,0,0,1,569.31,92.57Z" style="fill:#e0e0e0"></path><path d="M562,74.61c0,.14-.63.26-1.42.26s-1.42-.12-1.42-.26.64-.26,1.42-.26S562,74.46,562,74.61Z" style="fill:#e0e0e0"></path><path d="M562,76.3c0,.14-.63.26-1.42.26s-1.42-.12-1.42-.26.64-.26,1.42-.26S562,76.15,562,76.3Z" style="fill:#e0e0e0"></path><path d="M488.75,216.35a3.9,3.9,0,0,1,4.57-5.86,5.54,5.54,0,0,1,10.23-2.88,8.47,8.47,0,0,1,7.5-1.26c2.7.85,4.77,3,6.55,5.23a12.14,12.14,0,0,1,2.71,4.91,4.81,4.81,0,0,1-1.72,5" style="fill:#fafafa"></path><path d="M485.86,214.84h36.67a0,0,0,0,1,0,0v28.78a13,13,0,0,1-13,13H498.85a13,13,0,0,1-13-13V214.84A0,0,0,0,1,485.86,214.84Z" style="fill:#e0e0e0"></path><path d="M516.35,234.92c.3-.23.93.11,1.92.6a13.28,13.28,0,0,0,4.14,1.35,8.7,8.7,0,0,0,5.65-1.07,8.3,8.3,0,0,0,4-5.28,8.52,8.52,0,0,0-1.14-6.54,4.92,4.92,0,0,0-1.92-1.76,4.81,4.81,0,0,0-2.34-.39,11.28,11.28,0,0,0-4.08,1.27c-1,.49-1.72.75-2,.5s-.09-1,.66-2a9,9,0,0,1,4.65-3.34,8.06,8.06,0,0,1,4.47-.09,8.7,8.7,0,0,1,4.33,2.91,12.41,12.41,0,0,1,2.42,10.65,12,12,0,0,1-2.66,5.22,12.56,12.56,0,0,1-4.3,3.19,11.75,11.75,0,0,1-4.7,1.05,11.05,11.05,0,0,1-4.06-.73A9.65,9.65,0,0,1,516.9,237C516.16,235.9,516.08,235.12,516.35,234.92Z" style="fill:#e0e0e0"></path><path d="M599.31,227.37a10,10,0,0,1,12.22-5.07,9.37,9.37,0,0,1,17-1.35,6.52,6.52,0,0,1,6.56,9.87" style="fill:#e0e0e0"></path><path d="M618.85,255.8h0a23.14,23.14,0,0,1-23.14-23.14v-5.41H642v5.41A23.14,23.14,0,0,1,618.85,255.8Z" style="fill:#f5f5f5"></path><polygon points="198.72 257.5 185.7 257.5 180.89 232.8 203.74 232.8 198.72 257.5" style="fill:#ebebeb"></polygon><polygon points="292.9 257.5 279.88 257.5 275.07 232.8 297.91 232.8 292.9 257.5" style="fill:#e0e0e0"></polygon><polygon points="282.31 257.5 269.29 257.5 264.48 232.8 287.32 232.8 282.31 257.5" style="fill:#f5f5f5"></polygon><path d="M218.58,257.49V206.24a7.17,7.17,0,0,1,7.17-7.16H226V187.2h9.17v11.59h0a7.17,7.17,0,0,1,7.16,7.16v51.54Z" style="fill:#e0e0e0"></path><rect x="161.73" y="283.64" width="484.36" height="5.87" style="fill:#e0e0e0"></rect><rect x="614.25" y="320.69" width="7.36" height="148.05" style="fill:#ebebeb"></rect><path d="M591.79,305.86h54.54a11.21,11.21,0,0,1,11.21,11.21v4.21a0,0,0,0,1,0,0h-77a0,0,0,0,1,0,0v-4.21A11.21,11.21,0,0,1,591.79,305.86Z" style="fill:#e0e0e0"></path><rect x="582" y="326.28" width="73.97" height="2.52" style="fill:#e0e0e0"></rect><path d="M656.7,469.91h-2v-9.42A30.49,30.49,0,0,0,624.24,430H611.62a30.49,30.49,0,0,0-30.46,30.46v9.42h-2v-9.42A32.49,32.49,0,0,1,611.62,428h12.62a32.49,32.49,0,0,1,32.46,32.46Z" style="fill:#ebebeb"></path><rect x="254.5" y="320.69" width="7.36" height="148.05" style="fill:#ebebeb"></rect><path d="M232,305.86h54.54a11.21,11.21,0,0,1,11.21,11.21v4.21a0,0,0,0,1,0,0h-77a0,0,0,0,1,0,0v-4.21A11.21,11.21,0,0,1,232,305.86Z" style="fill:#e0e0e0"></path><rect x="222.25" y="326.28" width="73.97" height="2.52" style="fill:#e0e0e0"></rect><path d="M297,469.91h-2v-9.42A30.5,30.5,0,0,0,264.5,430H251.87a30.5,30.5,0,0,0-30.46,30.46v9.42h-2v-9.42A32.5,32.5,0,0,1,251.87,428H264.5A32.5,32.5,0,0,1,297,460.49Z" style="fill:#ebebeb"></path><rect x="133.22" y="320.69" width="7.36" height="148.05" style="fill:#ebebeb"></rect><path d="M110.77,305.86H165.3a11.21,11.21,0,0,1,11.21,11.21v4.21a0,0,0,0,1,0,0h-77a0,0,0,0,1,0,0v-4.21A11.21,11.21,0,0,1,110.77,305.86Z" style="fill:#e0e0e0"></path><rect x="100.97" y="326.28" width="73.97" height="2.52" style="fill:#e0e0e0"></rect><path d="M175.68,469.91h-2v-9.42A30.5,30.5,0,0,0,143.21,430H130.59a30.5,30.5,0,0,0-30.46,30.46v9.42h-2v-9.42A32.49,32.49,0,0,1,130.59,428h12.62a32.5,32.5,0,0,1,32.47,32.46Z" style="fill:#ebebeb"></path></g><g id="freepik--Floor--inject-6"><path d="M679.94,467.8c0,.15-136.54.26-304.93.26S70.06,468,70.06,467.8s136.51-.26,305-.26S679.94,467.66,679.94,467.8Z" style="fill:#263238"></path></g><g id="freepik--Characters--inject-6"><path d="M286.78,459.77,285,467.28s-12.28,16-16.07,15.17c-2.48-.51.57-4.67,5.24-16.78l1-5Z" style="fill:#407BFF"></path><path d="M268.43,480.09a.6.6,0,0,0,.1.23,1.29,1.29,0,0,0,.52.48,2,2,0,0,0,1.09.24,2.86,2.86,0,0,0,1.38-.51,59.1,59.1,0,0,0,6.19-5.77,78,78,0,0,0,5.49-6.43c.65-.86,1.17-1.57,1.51-2.07l.39-.57a1.94,1.94,0,0,0,.13-.21s-.06.06-.16.18l-.43.55c-.45.58-1,1.26-1.57,2-1.34,1.69-3.25,4-5.52,6.37a68.27,68.27,0,0,1-6.11,5.79,2.28,2.28,0,0,1-2.35.33A1.56,1.56,0,0,1,268.43,480.09Z" style="fill:#263238"></path><path d="M270.17,475s.39,0,1,0a5.94,5.94,0,0,1,2.22.84,4.59,4.59,0,0,1,1.66,1.66c.28.54.36.92.4.91a2.23,2.23,0,0,0-.26-1,4.24,4.24,0,0,0-1.68-1.78,5.48,5.48,0,0,0-2.32-.81A2,2,0,0,0,270.17,475Z" style="fill:#263238"></path><path d="M281.79,471.23s-.13-.54-.23-1.41a5.78,5.78,0,0,1,.62-3.3,5.45,5.45,0,0,1,2.35-2.37,10.25,10.25,0,0,1,1.33-.48,1.28,1.28,0,0,0-.39,0,4.36,4.36,0,0,0-1,.31,5.27,5.27,0,0,0-2.48,2.41,5.65,5.65,0,0,0-.58,3.42,6.47,6.47,0,0,0,.25,1A1.44,1.44,0,0,0,281.79,471.23Z" style="fill:#263238"></path><path d="M286,461.05a7.92,7.92,0,0,0-.67,2.35c-.22,1.33-.47,2.39-.42,2.4a7.87,7.87,0,0,0,.64-2.36C285.78,462.12,286.06,461.07,286,461.05Z" style="fill:#263238"></path><path d="M274,466.72c0,.07.7,0,1.53.24s1.44.51,1.47.46a2.82,2.82,0,0,0-1.42-.68A2.94,2.94,0,0,0,274,466.72Z" style="fill:#263238"></path><path d="M273.7,468c0,.07.59,0,1.28.17s1.17.48,1.21.42A1.9,1.9,0,0,0,275,468,1.88,1.88,0,0,0,273.7,468Z" style="fill:#263238"></path><path d="M272.72,469.62a6.68,6.68,0,0,1,1.32.05,6,6,0,0,1,1.22.53,2,2,0,0,0-2.54-.58Z" style="fill:#263238"></path><path d="M274.8,466.19a1.56,1.56,0,0,0,.41-.05,7.45,7.45,0,0,0,1.08-.3,8.83,8.83,0,0,0,1.53-.68,7.66,7.66,0,0,0,.84-.52,1.26,1.26,0,0,0,.62-.94.72.72,0,0,0-.93-.58,2,2,0,0,0-.85.57,14.68,14.68,0,0,0-1.13,1.23,11.16,11.16,0,0,0-.68.9,1.47,1.47,0,0,0-.21.35s.38-.45,1-1.15c.31-.35.7-.75,1.15-1.18a1.66,1.66,0,0,1,.76-.5c.28-.08.64.07.65.37s-.27.56-.52.75-.54.36-.81.52a11.37,11.37,0,0,1-1.48.71C275.36,466,274.79,466.15,274.8,466.19Z" style="fill:#263238"></path><path d="M275.44,466s0-.13,0-.38a9.63,9.63,0,0,0-.08-1,5.35,5.35,0,0,0-.38-1.49,3.16,3.16,0,0,0-.49-.78.8.8,0,0,0-1-.31,1,1,0,0,0-.34,1,3.93,3.93,0,0,0,.27.88,4.36,4.36,0,0,0,.88,1.26,5.43,5.43,0,0,0,.78.67,1,1,0,0,0,.32.19s-.42-.34-1-1a4.94,4.94,0,0,1-.8-1.23,4.22,4.22,0,0,1-.24-.83c0-.27,0-.62.23-.74s.51.05.7.26a3,3,0,0,1,.46.72,6,6,0,0,1,.42,1.42A11.48,11.48,0,0,0,275.44,466Z" style="fill:#263238"></path><path d="M285,467.28l.86-3.61s-3,.56-3.79,2.81a9.39,9.39,0,0,0-.58,3.86l-6.54,7s-1.65-3.21-4.62-2.44c0,0-2.34,5.15-2.26,6.44s1.57,1.13,2.1.89a26.56,26.56,0,0,0,5.86-4.62C279.49,474.05,283.32,469.49,285,467.28Z"></path><path d="M347.82,463.57l.06-10-18.75-.23L328.89,468l1.16.09c5.17.35,26.32,1.41,29.79.4C363.71,467.35,347.82,463.57,347.82,463.57Z" style="fill:#407BFF"></path><path d="M335.69,467.91a6.49,6.49,0,0,0-2.35-4,6.3,6.3,0,0,0-4.36-1.41l-.07,5.24Z"></path><path d="M355.58,465.69s5.57,1.68,4.86,2.59-22.12.64-31.55-.3l0-.42,25,.53S354.49,465.73,355.58,465.69Z"></path><path d="M328.63,467.54l.32,0,.93.07,3.4.19c2.88.14,6.86.28,11.25.34s8.38,0,11.26,0l3.41-.1.93,0,.32,0a1.57,1.57,0,0,0-.32,0h-.93l-3.41,0c-2.88,0-6.86,0-11.25,0s-8.37-.17-11.25-.27l-3.41-.12-.93,0A1.3,1.3,0,0,0,328.63,467.54Z" style="fill:#263238"></path><path d="M353.89,468.38a7.86,7.86,0,0,1,.65-1.62,8,8,0,0,1,1.18-1.29,2.53,2.53,0,0,0-1.37,1.17A2.47,2.47,0,0,0,353.89,468.38Z" style="fill:#263238"></path><path d="M348.39,465.5c.05,0,.32-.28.6-.71s.46-.8.41-.84-.32.29-.6.72S348.34,465.47,348.39,465.5Z" style="fill:#263238"></path><path d="M346.88,464.68c0,.05.34-.15.67-.43s.56-.56.51-.61-.34.15-.66.44S346.84,464.63,346.88,464.68Z" style="fill:#263238"></path><path d="M345.94,462.9a2.3,2.3,0,0,0,1,.13c.54,0,1,0,1-.09a2.23,2.23,0,0,0-1-.13C346.38,462.79,345.94,462.83,345.94,462.9Z" style="fill:#263238"></path><path d="M345.63,461.64a1.88,1.88,0,0,0,1.09.34,2,2,0,0,0,1.13-.14,7.32,7.32,0,0,0-1.11-.09A6.79,6.79,0,0,0,345.63,461.64Z" style="fill:#263238"></path><path d="M349.05,463.87a3.26,3.26,0,0,0,1.2,0,6.78,6.78,0,0,0,1.29-.27,3.88,3.88,0,0,0,.74-.29.66.66,0,0,0,.3-.37.46.46,0,0,0-.18-.48,2.21,2.21,0,0,0-2.74.61,2,2,0,0,0-.4.8.78.78,0,0,0,0,.32,3.52,3.52,0,0,1,.56-1,2.14,2.14,0,0,1,1-.65,1.9,1.9,0,0,1,1.44.11c.19.15.11.37-.1.49a3.86,3.86,0,0,1-.69.29,8.16,8.16,0,0,1-1.24.3C349.51,463.84,349.05,463.84,349.05,463.87Z" style="fill:#263238"></path><path d="M349.36,463.94a1.24,1.24,0,0,0,.15-.84,2,2,0,0,0-.32-.88,1.23,1.23,0,0,0-1-.63.47.47,0,0,0-.37.55,1.24,1.24,0,0,0,.19.54,4,4,0,0,0,.56.74,1.86,1.86,0,0,0,.69.5s-.24-.22-.57-.61a4,4,0,0,1-.49-.73c-.17-.25-.27-.71,0-.76s.61.27.79.52a2.15,2.15,0,0,1,.33.78A5.27,5.27,0,0,1,349.36,463.94Z" style="fill:#263238"></path><path d="M329.08,462.42s.53-.05,1.38.06a6.16,6.16,0,0,1,3,1.29,6.07,6.07,0,0,1,1.85,2.69c.28.81.3,1.35.34,1.34s0-.13,0-.37a5.26,5.26,0,0,0-.19-1,5.72,5.72,0,0,0-5-4.09,4.7,4.7,0,0,0-1,0C329.2,462.37,329.07,462.4,329.08,462.42Z" style="fill:#263238"></path><path d="M331.12,454.64a67.5,67.5,0,0,0-.2,7.7,30.25,30.25,0,0,0,.21-3.85A32.62,32.62,0,0,0,331.12,454.64Z" style="fill:#263238"></path><path d="M338.07,466.11a10.39,10.39,0,0,0,2.74.31,10.18,10.18,0,0,0,2.74-.19c0-.06-1.23,0-2.74,0S338.08,466.05,338.07,466.11Z" style="fill:#263238"></path><path d="M334.4,466.06c0,.05.09.26.21.54s.19.54.26.53.1-.29-.05-.62S334.44,466,334.4,466.06Z" style="fill:#263238"></path><path d="M333,464.32s.08.24.27.44.38.32.43.28-.08-.24-.27-.44S333.08,464.28,333,464.32Z" style="fill:#263238"></path><path d="M331.06,463.51c0,.06.26.06.54.16s.47.25.52.21-.11-.3-.45-.42S331,463.45,331.06,463.51Z" style="fill:#263238"></path><path d="M329.65,463.12c0,.06.09.15.24.22s.3.06.33,0-.09-.15-.24-.22S329.68,463.06,329.65,463.12Z" style="fill:#263238"></path><polyline points="360.58 264.72 351.83 459.25 322.63 459.87 327.48 297.01 294.63 461.11 266.86 461.11 303.94 264.72" style="fill:#263238"></polyline><path d="M332.34,267.19a5,5,0,0,0-.18,1.19c-.09.77-.18,1.88-.3,3.25-.22,2.75-.48,6.56-.74,10.76-.13,2.09-.24,4.09-.35,5.92a18.33,18.33,0,0,1-.56,4.74,4.07,4.07,0,0,1-2,2.34,6.57,6.57,0,0,1-1.13.32s.11,0,.32.05a2.33,2.33,0,0,0,.89-.17,4.09,4.09,0,0,0,2.26-2.4,17.34,17.34,0,0,0,.71-4.85c.12-1.83.25-3.82.39-5.92.26-4.2.47-8,.58-10.76.06-1.38.1-2.5.12-3.27A4.91,4.91,0,0,0,332.34,267.19Z" style="fill:#455a64"></path><path d="M329.34,269.77c0,.07.25.27.27.73a.82.82,0,0,1-.22.66.7.7,0,0,1-.76.11.73.73,0,0,1-.48-.61.85.85,0,0,1,.3-.63c.34-.32.68-.25.7-.34s-.36-.32-.93,0a1.22,1.22,0,0,0-.59.94,1.26,1.26,0,0,0,2.14.88,1.22,1.22,0,0,0,.24-1.09C329.83,269.79,329.34,269.7,329.34,269.77Z" style="fill:#455a64"></path><path d="M301.86,274.38a5.58,5.58,0,0,0,2.43.93,10.25,10.25,0,0,0,10.88-4.87,5.52,5.52,0,0,0,.93-2.42c-.09,0-.39.91-1.27,2.21a10.65,10.65,0,0,1-10.48,4.68C302.8,274.7,301.9,274.29,301.86,274.38Z" style="fill:#455a64"></path><path d="M350.43,267.19a4.12,4.12,0,0,0,.1,2.11,8.31,8.31,0,0,0,7.3,6.39,4.07,4.07,0,0,0,2.1-.18c0-.09-.81,0-2.05-.22a8.7,8.7,0,0,1-7-6.1C350.54,268,350.52,267.19,350.43,267.19Z" style="fill:#455a64"></path><path d="M365.23,182.61l27.22,7.07s22.5-25,23.56-25.85,14.86,3.5,14.86,3.5l-16,29.7c-3.83,9.68-9.52,15.14-15.06,15.38l-44.6-8.85Z" style="fill:#d17d59"></path><path d="M415.11,164.93s3.12-6.24,3.54-7.18a82.71,82.71,0,0,0,2.71-8.35s1.85-.41,1.73,3.74.72,3,.72,3,8.6-10.45,10.69-9.76c.78.26-.3,2.74-1.72,4.08a29.08,29.08,0,0,0-3,3.51s8.1-7.29,9.95-6.15c0,0,.91.72-1.66,2.87a57.08,57.08,0,0,0-6,5.78s8-5.66,8.93-5.05c1.5,1-6.63,6.79-8,8.94,0,0,6.05-4.64,6.21-3.15s-7.36,6.71-10.8,14.31Z" style="fill:#d17d59"></path><path d="M421.58,157.15c-.05.09.55.4,1.24,1.18a5.81,5.81,0,0,1,1.45,3.65l0,.71.48-.53,0,0a7.06,7.06,0,0,1,3.41-2.1c1-.28,1.7-.26,1.7-.36a3.09,3.09,0,0,0-1.78,0,6.56,6.56,0,0,0-3.75,2.13l0,0,.5.18a5.61,5.61,0,0,0-1.74-3.91A2.87,2.87,0,0,0,421.58,157.15Z" style="fill:#a05135"></path><path d="M295.63,183.78l-27.21,7.06s-18.92-21-22.87-25.15c-.69-1.39-3-6-3.34-6.77a85.45,85.45,0,0,1-2.7-8.35s-1.85-.41-1.74,3.73-.71,3-.71,3c-6.92-12.83-11.93-6.32-12.4-5.13s-.39,8.92-.39,8.92c-.13,1.17,2.84,3,5.79,7.4l-.06,0,16,29.69c3.83,9.69,9.52,15.15,15.06,15.39l44.6-8.86Z" style="fill:#d17d59"></path><path d="M239.29,158.32c0-.06-.71.14-1.53.9a5.58,5.58,0,0,0-1.73,3.91l.49-.18,0,0a6.53,6.53,0,0,0-3.75-2.13,3.09,3.09,0,0,0-1.78,0c0,.09.68.07,1.69.35a7,7,0,0,1,3.41,2.11l0,0,.49.53v-.71a5.81,5.81,0,0,1,1.46-3.64C238.74,158.72,239.33,158.4,239.29,158.32Z" style="fill:#a05135"></path><path d="M329.48,124h.18a1,1,0,0,1,1,1v.87a0,0,0,0,1,0,0h-2.25a0,0,0,0,1,0,0V125A1,1,0,0,1,329.48,124Z" transform="translate(-16.98 60.69) rotate(-10.26)" style="fill:#407BFF"></path><path d="M329.48,124h.18a1,1,0,0,1,1,1v.87a0,0,0,0,1,0,0h-2.25a0,0,0,0,1,0,0V125A1,1,0,0,1,329.48,124Z" transform="translate(-16.98 60.69) rotate(-10.26)"></path><path d="M335.18,163a3.78,3.78,0,0,0,.17.35,6.86,6.86,0,0,0,9.8,2.67,4.32,4.32,0,0,0,2.2-4.21,2,2,0,0,0,2.66.33,3.25,3.25,0,0,0,1.25-2.58,9.35,9.35,0,0,0-.49-2.91,2.35,2.35,0,0,0,3,.07,3,3,0,0,0,1-2.91,4.09,4.09,0,0,0-1.85-2.55,2.6,2.6,0,0,0,2.63-3.34c-.44-1.46-2-2.22-3.51-2.61s-3.08-.62-4.22-1.65a5.06,5.06,0,0,1-1.47-3,15.23,15.23,0,0,1,0-3.44l-5.36.15Z" style="fill:#263238"></path><path d="M317.47,140.59c-.19,1.15-1.74,4.12-2.72,4.75a14.74,14.74,0,0,1-3.21,1.38,9.4,9.4,0,0,0-3.1,1.59,3.66,3.66,0,0,0-1.4,3.07,2.31,2.31,0,0,0,2.37,2.08,10.29,10.29,0,0,0-1.87,3,3.54,3.54,0,0,0,.4,3.37,2.17,2.17,0,0,0,3.11.3,4.34,4.34,0,0,0,6.42,5.26,4.8,4.8,0,0,0,9.07,1.25" style="fill:#263238"></path><path d="M321.29,179.37l18-1.44c.12-2.1,0-10.25,0-10.25s7.5-1.16,7.59-8.66-1.21-24.73-1.21-24.73h0a26.05,26.05,0,0,0-26.19,3.3l-1.11.85Z" style="fill:#d17d59"></path><path d="M345.76,145.65c-.11.13-.85-.44-1.88-.45s-1.79.53-1.9.4.06-.29.39-.54a2.48,2.48,0,0,1,1.52-.48,2.5,2.5,0,0,1,1.5.52C345.71,145.35,345.82,145.59,345.76,145.65Z" style="fill:#263238"></path><path d="M334.54,146.19c-.11.13-.85-.44-1.88-.44s-1.79.53-1.9.39.06-.29.39-.54a2.53,2.53,0,0,1,3,0C334.49,145.89,334.6,146.13,334.54,146.19Z" style="fill:#263238"></path><path d="M338.69,154.9a5,5,0,0,1,1.67-.35c.27,0,.48-.09.5-.24a1.44,1.44,0,0,0-.2-.77l-.81-2.1a28.78,28.78,0,0,1-1.77-5.52,29.23,29.23,0,0,1,2.32,5.31c.26.73.52,1.43.77,2.12a1.71,1.71,0,0,1,.15,1.12.69.69,0,0,1-.47.43,1.35,1.35,0,0,1-.46.06A4.89,4.89,0,0,1,338.69,154.9Z" style="fill:#263238"></path><path d="M339.3,167.58a17.5,17.5,0,0,1-9.78-2.78s2.31,5.4,9.79,4.72Z" style="fill:#a05135"></path><path d="M345.83,136.18s-4.39,2.54-10.53,0c-4-1.65-8.64-2.26-9.58-1.41s3.49-.88.62,5.26c0,0-3.06,15.36-7.47,8.65-1.67-2.54-2-12-2-12l7.18-4.19,8-2.14,7.75.52,6.05,1.18Z" style="fill:#263238"></path><path d="M319.29,146.21c-.13-.05-5.15-1.52-5,3.6s5.28,3.91,5.28,3.76S319.29,146.21,319.29,146.21Z" style="fill:#d17d59"></path><path d="M318,151.68s-.08.07-.23.14a.88.88,0,0,1-.67,0A2.18,2.18,0,0,1,316,149.9a3,3,0,0,1,.2-1.28,1.06,1.06,0,0,1,.65-.71.47.47,0,0,1,.54.23c.07.14,0,.24.07.25s.11-.09.06-.3a.54.54,0,0,0-.21-.31.65.65,0,0,0-.5-.12,1.28,1.28,0,0,0-.91.83,3,3,0,0,0-.26,1.43A2.31,2.31,0,0,0,317,152.1a1,1,0,0,0,.81-.16C318,151.8,318,151.69,318,151.68Z" style="fill:#a05135"></path><path d="M340.74,142.7c.16.28,1.14,0,2.32,0s2.19.1,2.32-.19-.88-1-2.37-1S340.57,142.44,340.74,142.7Z" style="fill:#263238"></path><path d="M329.23,142.82c.16.29,1.14,0,2.33,0s2.18.11,2.31-.18-.88-1-2.36-1S329.07,142.57,329.23,142.82Z" style="fill:#263238"></path><path d="M321.1,141.12s37.94-5,39.19-6.37c1-1.07-4.34-2.26-13.91-1.5C343.84,136.12,331.8,138.65,321.1,141.12Z" style="fill:#407BFF"></path><path d="M316.66,142.31l30.22-5.65s.63-7.95-8.62-10.44a18.28,18.28,0,0,0-17.14,3.72A13.76,13.76,0,0,0,316.66,142.31Z" style="fill:#407BFF"></path><path d="M338.87,157c.09.11-.73.65-1.81.39s-1.6-1.08-1.47-1.15.68.45,1.58.64S338.81,156.82,338.87,157Z" style="fill:#263238"></path><path d="M316.66,142.31s5.13-1,6.36-1.19c1-.13,3.9-.73,3.9-.73,10.76-1.5,32.79-4.75,33.37-5.64.81-1.23-4.34-2.26-13.91-1.5C343.84,136.12,327.36,139.84,316.66,142.31Z"></path><path d="M329.9,125.68c.06.08-.7.58-1.59,1.69a10.68,10.68,0,0,0-1.29,2.11,14,14,0,0,0-.87,2.91A21.09,21.09,0,0,0,326,138a17.77,17.77,0,0,1,.21,2.33,7.68,7.68,0,0,1-.57-2.28,17.76,17.76,0,0,1,0-5.7,13,13,0,0,1,1-3,9,9,0,0,1,1.44-2.15,6.36,6.36,0,0,1,1.31-1.15C329.68,125.76,329.88,125.65,329.9,125.68Z" style="fill:#263238"></path><path d="M342.37,135.27c-.08,0-.36-.88-1.1-2.21a13.86,13.86,0,0,0-9.12-6.9c-1.47-.34-2.43-.36-2.42-.45a6.25,6.25,0,0,1,2.5.09,12.86,12.86,0,0,1,9.37,7.09A6.27,6.27,0,0,1,342.37,135.27Z" style="fill:#263238"></path><path d="M316.54,138.69l2.29-.79.75,2.69-3,.95A16.47,16.47,0,0,1,316.54,138.69Z" style="fill:#263238"></path><path d="M277.1,188.06l4.57,26.69,23.82-4.81-.83,26.69-2.46,30.75L364,271.45c.14-6.21-5.11-61.61-5.11-61.61l14.73,5,8-29.93-24.37-6.59A93.12,93.12,0,0,0,339.8,175a31.84,31.84,0,0,1-19.22,0h0a26.18,26.18,0,0,0-8,1.53Z" style="fill:#455a64"></path><path d="M318,174.93a3.41,3.41,0,0,0,.8.57,17.21,17.21,0,0,0,2.38,1.23A22,22,0,0,0,325,178a26.12,26.12,0,0,0,4.84.64,25.76,25.76,0,0,0,4.86-.36,21.66,21.66,0,0,0,3.85-1,17.71,17.71,0,0,0,2.45-1.08,3.77,3.77,0,0,0,.83-.52c-.05-.1-1.29.55-3.41,1.22a25.73,25.73,0,0,1-3.8.9,28.79,28.79,0,0,1-4.77.3,28.32,28.32,0,0,1-4.74-.58,25.64,25.64,0,0,1-3.74-1.11C319.28,175.56,318.08,174.84,318,174.93Z" style="fill:#263238"></path><path d="M369.66,213.23a4.76,4.76,0,0,0,.52-1.08c.3-.71.72-1.74,1.21-3,1-2.56,2.28-6.13,3.61-10.11s2.43-7.62,3.17-10.26c.38-1.32.67-2.4.85-3.14a5,5,0,0,0,.23-1.18,5,5,0,0,0-.44,1.11l-1,3.09c-.89,2.74-2.05,6.28-3.33,10.2S371.94,206.26,371,209c-.4,1.21-.75,2.24-1,3.08A4.84,4.84,0,0,0,369.66,213.23Z" style="fill:#263238"></path><path d="M301.86,264.6c0,.15,14.39,1.13,32.15,2.18s32.17,1.78,32.18,1.62-14.38-1.13-32.15-2.18S301.87,264.44,301.86,264.6Z" style="fill:#263238"></path><path d="M315.16,265.45c-.14,0-.26-19.9-.26-44.43s.12-44.43.26-44.43.26,19.89.26,44.43S315.3,265.45,315.16,265.45Z" style="fill:#fafafa"></path><path d="M326.24,265.71c-.15,0-.26-19.6-.26-43.76s.11-43.77.26-43.77.26,19.59.26,43.77S326.38,265.71,326.24,265.71Z" style="fill:#fafafa"></path><path d="M337.77,265c-.14,0-.26-19.6-.26-43.77s.12-43.77.26-43.77.26,19.6.26,43.77S337.92,265,337.77,265Z" style="fill:#fafafa"></path><path d="M348.56,266.21c-.15,0-.26-20.1-.26-44.89s.11-44.9.26-44.9.26,20.1.26,44.9S348.7,266.21,348.56,266.21Z" style="fill:#fafafa"></path><path d="M358.09,211.28c-.14,0-.26-7.46-.26-16.67s.12-16.68.26-16.68.26,7.46.26,16.68S358.23,211.28,358.09,211.28Z" style="fill:#fafafa"></path><path d="M368.31,202.25a99.6,99.6,0,0,1-.3-10.15,99.88,99.88,0,0,1,.21-10.16,98.18,98.18,0,0,1,.31,10.16A97.72,97.72,0,0,1,368.31,202.25Z" style="fill:#fafafa"></path><path d="M302.41,210.57c-.15,0-.26-6.75-.26-15.07s.11-15.07.26-15.07.26,6.75.26,15.07S302.55,210.57,302.41,210.57Z" style="fill:#fafafa"></path><path d="M289.11,213.29c-.14,0-.26-6.4-.26-14.3s.12-14.29.26-14.29.26,6.4.26,14.29S289.26,213.29,289.11,213.29Z" style="fill:#fafafa"></path><path d="M385.69,206.1a20.19,20.19,0,0,1-3.77-2.55,19.55,19.55,0,0,1-3.46-3,21,21,0,0,1,3.77,2.55A19.55,19.55,0,0,1,385.69,206.1Z" style="fill:#fafafa"></path><path d="M378.53,224.76a4.79,4.79,0,0,1-.3-1.15c-.18-.85-.4-1.91-.67-3.16-.56-2.67-1.39-6.35-2.48-10.36s-2.21-7.61-3.06-10.2c-.4-1.22-.74-2.24-1-3.07a6.14,6.14,0,0,1-.32-1.15,4.54,4.54,0,0,1,.51,1.08c.3.7.7,1.73,1.18,3,.94,2.56,2.13,6.15,3.22,10.18s1.86,7.73,2.34,10.43c.23,1.34.4,2.44.5,3.2A5.45,5.45,0,0,1,378.53,224.76Z" style="fill:#263238"></path><path d="M285.41,214.55a5.4,5.4,0,0,1-.43-1c-.24-.67-.57-1.66-1-2.89-.76-2.46-1.71-5.9-2.54-9.74s-1.39-7.36-1.71-9.91c-.16-1.28-.27-2.32-.32-3a4.37,4.37,0,0,1,0-1.12,4.5,4.5,0,0,1,.24,1.1c.13.82.29,1.82.49,3,.41,2.54,1,6,1.85,9.86s1.71,7.27,2.38,9.75c.31,1.15.58,2.13.8,2.93A4.39,4.39,0,0,1,285.41,214.55Z" style="fill:#263238"></path><path d="M236.07,137.64l-2.86,5.86a8,8,0,0,1-2.49,3.25l-3.5,2.7a1.71,1.71,0,0,0-.54.71l-7.74,18.72a.51.51,0,0,0,.28.68l10.54,4.36a.53.53,0,0,0,.68-.28L238.13,155a1.73,1.73,0,0,0,.11-.93l-.54-4.48a9.09,9.09,0,0,1,.54-4l1.79-6.34Z" style="fill:#407BFF"></path><polyline points="236.92 157.95 229.82 155.02 224.66 167.49 231.76 170.42" style="fill:#fafafa"></polyline><rect x="235.53" y="136.75" width="5.71" height="1.81" rx="0.83" transform="translate(70.68 -80.64) rotate(22.46)" style="fill:#407BFF"></rect><polygon points="236.48 144.93 233.2 143.57 234.93 139.97 238.01 141.24 236.48 144.93" style="fill:#fafafa"></polygon><path d="M234.34,164.19a2.79,2.79,0,1,1-1.51-3.65A2.8,2.8,0,0,1,234.34,164.19Z" style="fill:#407BFF"></path><path d="M236.7,158.48a9.64,9.64,0,0,1-1.88-.63c-1.17-.44-2.84-1.09-4.82-1.89l.3-.12c-.7,1.7-1.49,3.64-2.32,5.69l-2.38,5.68-.13-.3c2,.83,3.61,1.54,4.75,2.06a11.54,11.54,0,0,1,1.78.88,9.64,9.64,0,0,1-1.88-.63c-1.18-.44-2.84-1.09-4.82-1.89l-.22-.08.09-.22,2.33-5.7,2.37-5.67.09-.21.21.09c2,.83,3.61,1.54,4.76,2.06A11.67,11.67,0,0,1,236.7,158.48Z" style="fill:#e0e0e0"></path><path d="M236.79,141.87c0,.14-.6,0-1.22-.22s-1.08-.57-1-.71.61,0,1.23.23S236.85,141.74,236.79,141.87Z" style="fill:#e0e0e0"></path><path d="M236.24,143.21c-.05.13-.6,0-1.22-.22s-1.08-.58-1-.71.6,0,1.23.23S236.3,143.08,236.24,143.21Z" style="fill:#e0e0e0"></path><path d="M227.38,149.51l2.34,4.56c.26.51.51,1.15.17,1.61a1.06,1.06,0,0,1-1.17.27,2.5,2.5,0,0,1-1-.77,13.3,13.3,0,0,1-2.4-3.7,1.42,1.42,0,0,1,.39-1.55A2.17,2.17,0,0,1,227.38,149.51Z" style="fill:#d17d59"></path><path d="M224.19,154.6q1.17,2.28,2.33,4.56c.26.51.52,1.15.17,1.61a1,1,0,0,1-1.16.27,2.6,2.6,0,0,1-1-.77,13.41,13.41,0,0,1-2.39-3.7,1.4,1.4,0,0,1,.39-1.55A2.17,2.17,0,0,1,224.19,154.6Z" style="fill:#d17d59"></path><path d="M226,152.11q1.17,2.28,2.33,4.56c.26.51.52,1.16.17,1.62a1,1,0,0,1-1.16.26,2.67,2.67,0,0,1-1-.76,13.41,13.41,0,0,1-2.39-3.7s-.82-1.75.59-2.68S226,152.11,226,152.11Z" style="fill:#d17d59"></path><path d="M241.16,133.37a10.18,10.18,0,0,1,.58-3.6,3.41,3.41,0,0,1,2.71-2.19,2.09,2.09,0,0,1,2.26,2.23c-.19,1-1.29,1.64-2.3,2s-2.69.65-3.25,1.56" style="fill:#455a64"></path><path d="M240.35,129.93a8.41,8.41,0,0,1-1.07-5,2.25,2.25,0,0,1,.86-1.79,1.46,1.46,0,0,1,1.58.08,2,2,0,0,1,.81,1.4,4.43,4.43,0,0,1-.81,2.72,7.62,7.62,0,0,0-1.23,2.59" style="fill:#455a64"></path><path d="M454.37,183.78l27.21,7.06s22.51-25,23.56-25.85S520,168.5,520,168.5l-16,29.69c-3.83,9.69-9.52,15.15-15.06,15.39l-44.6-8.86Z" style="fill:#ffbe9d"></path><path d="M527.87,153.76c.16,1.49-6.83,11.32-10.27,18.91l-13.35-6.57s3.11-6.24,3.54-7.18a85.45,85.45,0,0,0,2.7-8.35s1.85-.41,1.74,3.73.71,3,.71,3,8.61-10.45,10.69-9.76Z" style="fill:#ffbe9d"></path><path d="M510.71,158.32c0-.06.71.14,1.53.9a5.58,5.58,0,0,1,1.73,3.91l-.49-.18,0,0a6.53,6.53,0,0,1,3.75-2.13,3.09,3.09,0,0,1,1.78,0c0,.09-.68.07-1.69.35a7,7,0,0,0-3.41,2.11l0,0-.49.53v-.71A5.81,5.81,0,0,0,512,159.5C511.26,158.72,510.67,158.4,510.71,158.32Z" style="fill:#eb996e"></path><path d="M430.61,146.88a1.69,1.69,0,0,0,2.27,2.13c1.14-.5,1.37-2,1.22-3.27s-.5-2.58.08-3.69a8.39,8.39,0,0,1,2-2,5.41,5.41,0,0,0,1.74-4.49,4.54,4.54,0,0,0-2.92-3.73c-1.61-.55-3.65-.15-4.81-1.4-.83-.91-.81-2.32-1.44-3.38-1-1.65-3.2-2-5.11-1.87s-3.87.66-5.7.1c-1.53-.47-2.74-1.62-4.15-2.37a8.38,8.38,0,0,0-11.52,10.9,5.36,5.36,0,0,0,2.45,2.71" style="fill:#263238"></path><path d="M428.71,179.37l-18-1.44c-.12-2.1,0-10.25,0-10.25s-7.5-1.16-7.59-8.66,1.21-24.73,1.21-24.73h0a26.05,26.05,0,0,1,26.19,3.3l1.11.85Z" style="fill:#ffbe9d"></path><path d="M404.44,146.46c.11.13.85-.44,1.88-.44s1.79.53,1.9.39-.06-.29-.39-.54a2.6,2.6,0,0,0-1.51-.48,2.51,2.51,0,0,0-1.51.52C404.49,146.17,404.38,146.4,404.44,146.46Z" style="fill:#263238"></path><path d="M415.66,147c.12.13.85-.43,1.88-.44s1.79.53,1.9.4-.06-.3-.39-.54a2.47,2.47,0,0,0-1.51-.48,2.58,2.58,0,0,0-1.51.51C415.71,146.71,415.6,147,415.66,147Z" style="fill:#263238"></path><path d="M411.31,154.9a5,5,0,0,0-1.67-.35c-.27,0-.48-.09-.5-.24a1.44,1.44,0,0,1,.2-.77l.81-2.1a28.78,28.78,0,0,0,1.77-5.52,29.23,29.23,0,0,0-2.32,5.31c-.26.73-.52,1.43-.77,2.12a1.71,1.71,0,0,0-.15,1.12.69.69,0,0,0,.47.43,1.35,1.35,0,0,0,.46.06A4.89,4.89,0,0,0,411.31,154.9Z" style="fill:#263238"></path><path d="M415.22,155.76a21.93,21.93,0,0,1-5.61,1.63,3.17,3.17,0,0,0,3.73,1.26C415.83,157.74,415.22,155.76,415.22,155.76Z" style="fill:#fff"></path><path d="M410.7,167.58a17.5,17.5,0,0,0,9.78-2.78s-2.31,5.4-9.79,4.72Z" style="fill:#eb996e"></path><path d="M404.17,136.18s4.39,2.54,10.53,0c4-1.65,8.64-2.26,9.58-1.41s.85,4.88,4.62,6.33c0,0-.83,7.63,2.23,7.58s2-12,2-12L426,132.48l-8-2.14-7.75.52L404.17,132Z" style="fill:#263238"></path><path d="M430.71,146.21c.13-.05,5.15-1.52,5,3.6s-5.28,3.91-5.28,3.76S430.71,146.21,430.71,146.21Z" style="fill:#ffbe9d"></path><path d="M432.05,151.68s.08.07.23.14a.88.88,0,0,0,.67,0A2.18,2.18,0,0,0,434,149.9a3,3,0,0,0-.2-1.28,1.06,1.06,0,0,0-.65-.71.47.47,0,0,0-.54.23c-.07.14,0,.24-.07.25s-.11-.09-.06-.3a.54.54,0,0,1,.21-.31.65.65,0,0,1,.5-.12,1.28,1.28,0,0,1,.91.83,3,3,0,0,1,.26,1.43A2.31,2.31,0,0,1,433,152.1a1,1,0,0,1-.81-.16C432.05,151.8,432,151.69,432.05,151.68Z" style="fill:#eb996e"></path><path d="M434.19,130.32c0,.16-.8.08-1.66.36s-1.44.75-1.57.65.37-.87,1.4-1.19S434.25,130.18,434.19,130.32Z" style="fill:#263238"></path><path d="M431.28,127.08a3.57,3.57,0,0,1,.14,2.44c-.27,1.39-1.14,2.22-1.24,2.11s.45-1,.69-2.22S431.1,127.09,431.28,127.08Z" style="fill:#263238"></path><path d="M409.26,142.28c-.16.28-1.14,0-2.32,0s-2.19.11-2.32-.19.88-1,2.37-.94S409.43,142,409.26,142.28Z" style="fill:#263238"></path><path d="M420.23,142.82c-.15.29-1.13,0-2.32,0s-2.18.11-2.31-.18.88-1,2.36-1S420.4,142.57,420.23,142.82Z" style="fill:#263238"></path><path d="M463.22,459.77l1.78,7.51s12.28,16,16.07,15.17c2.48-.51-.57-4.67-5.24-16.78l-1-5Z" style="fill:#455a64"></path><path d="M481.57,480.09a.6.6,0,0,1-.1.23,1.29,1.29,0,0,1-.52.48,2,2,0,0,1-1.09.24,2.86,2.86,0,0,1-1.38-.51,59.1,59.1,0,0,1-6.19-5.77,78,78,0,0,1-5.49-6.43c-.65-.86-1.17-1.57-1.51-2.07l-.39-.57a1.94,1.94,0,0,1-.13-.21s.06.06.16.18l.43.55c.45.58,1,1.26,1.57,2,1.34,1.69,3.25,4,5.52,6.37a68.27,68.27,0,0,0,6.11,5.79,2.28,2.28,0,0,0,2.35.33A1.56,1.56,0,0,0,481.57,480.09Z" style="fill:#263238"></path><path d="M479.83,475s-.39,0-1,0a5.94,5.94,0,0,0-2.22.84,4.59,4.59,0,0,0-1.66,1.66c-.28.54-.36.92-.4.91a2.23,2.23,0,0,1,.26-1,4.24,4.24,0,0,1,1.68-1.78,5.48,5.48,0,0,1,2.32-.81A2,2,0,0,1,479.83,475Z" style="fill:#263238"></path><path d="M468.21,471.23s.13-.54.23-1.41a5.78,5.78,0,0,0-.62-3.3,5.45,5.45,0,0,0-2.35-2.37,10.25,10.25,0,0,0-1.33-.48,1.28,1.28,0,0,1,.39,0,4.36,4.36,0,0,1,1,.31,5.27,5.27,0,0,1,2.48,2.41,5.65,5.65,0,0,1,.58,3.42,6.47,6.47,0,0,1-.25,1A1.44,1.44,0,0,1,468.21,471.23Z" style="fill:#263238"></path><path d="M464,461.05a7.92,7.92,0,0,1,.67,2.35c.22,1.33.47,2.39.42,2.4a7.87,7.87,0,0,1-.64-2.36C464.22,462.12,463.94,461.07,464,461.05Z" style="fill:#263238"></path><path d="M476.05,466.72c0,.07-.7,0-1.53.24s-1.44.51-1.47.46a2.82,2.82,0,0,1,1.42-.68A2.94,2.94,0,0,1,476.05,466.72Z" style="fill:#263238"></path><path d="M476.3,468c0,.07-.59,0-1.28.17s-1.17.48-1.21.42A1.9,1.9,0,0,1,475,468,1.88,1.88,0,0,1,476.3,468Z" style="fill:#263238"></path><path d="M477.28,469.62a6.68,6.68,0,0,0-1.32.05,6,6,0,0,0-1.22.53,2,2,0,0,1,2.54-.58Z" style="fill:#263238"></path><path d="M475.2,466.19a1.56,1.56,0,0,1-.41-.05,7.45,7.45,0,0,1-1.08-.3,8.83,8.83,0,0,1-1.53-.68,7.66,7.66,0,0,1-.84-.52,1.26,1.26,0,0,1-.62-.94.72.72,0,0,1,.93-.58,2,2,0,0,1,.85.57,14.68,14.68,0,0,1,1.13,1.23,11.16,11.16,0,0,1,.68.9,1.47,1.47,0,0,1,.21.35s-.38-.45-1-1.15c-.31-.35-.7-.75-1.15-1.18a1.66,1.66,0,0,0-.76-.5c-.28-.08-.64.07-.65.37s.27.56.52.75.54.36.81.52a11.37,11.37,0,0,0,1.48.71C474.64,466,475.21,466.15,475.2,466.19Z" style="fill:#263238"></path><path d="M474.56,466s0-.13,0-.38a9.63,9.63,0,0,1,.08-1,5.35,5.35,0,0,1,.38-1.49,3.16,3.16,0,0,1,.49-.78.8.8,0,0,1,1-.31,1,1,0,0,1,.34,1,3.93,3.93,0,0,1-.27.88,4.36,4.36,0,0,1-.88,1.26,5.43,5.43,0,0,1-.78.67,1,1,0,0,1-.32.19s.42-.34,1-1a4.94,4.94,0,0,0,.8-1.23,4.22,4.22,0,0,0,.24-.83c0-.27,0-.62-.23-.74s-.51.05-.7.26a3,3,0,0,0-.46.72,6,6,0,0,0-.42,1.42A11.48,11.48,0,0,1,474.56,466Z" style="fill:#263238"></path><path d="M402.18,463.57l-.06-10,18.75-.23.24,14.65-1.16.09c-5.17.35-26.32,1.41-29.79.4C386.29,467.35,402.18,463.57,402.18,463.57Z" style="fill:#455a64"></path><path d="M421.37,467.54l-.32,0-.93.07-3.4.19c-2.88.14-6.86.28-11.25.34s-8.38,0-11.26,0l-3.41-.1-.93,0-.32,0a1.57,1.57,0,0,1,.32,0h.93l3.41,0c2.88,0,6.86,0,11.25,0s8.37-.17,11.25-.27l3.41-.12.93,0A1.3,1.3,0,0,1,421.37,467.54Z" style="fill:#263238"></path><path d="M396.11,468.38a7.86,7.86,0,0,0-.65-1.62,8,8,0,0,0-1.18-1.29,2.53,2.53,0,0,1,1.37,1.17A2.47,2.47,0,0,1,396.11,468.38Z" style="fill:#263238"></path><path d="M401.61,465.5c-.05,0-.32-.28-.6-.71s-.46-.8-.41-.84.32.29.6.72S401.66,465.47,401.61,465.5Z" style="fill:#263238"></path><path d="M403.12,464.68c0,.05-.34-.15-.67-.43s-.56-.56-.51-.61.34.15.66.44S403.16,464.63,403.12,464.68Z" style="fill:#263238"></path><path d="M404.06,462.9a2.3,2.3,0,0,1-1,.13c-.54,0-1,0-1-.09a2.23,2.23,0,0,1,1-.13C403.62,462.79,404.06,462.83,404.06,462.9Z" style="fill:#263238"></path><path d="M404.37,461.64a1.88,1.88,0,0,1-1.09.34,2,2,0,0,1-1.13-.14,7.32,7.32,0,0,1,1.11-.09A6.79,6.79,0,0,1,404.37,461.64Z" style="fill:#263238"></path><path d="M401,463.87a3.26,3.26,0,0,1-1.2,0,6.78,6.78,0,0,1-1.29-.27,3.88,3.88,0,0,1-.74-.29.66.66,0,0,1-.3-.37.46.46,0,0,1,.18-.48,2.21,2.21,0,0,1,2.74.61,2,2,0,0,1,.4.8.78.78,0,0,1,0,.32,3.52,3.52,0,0,0-.56-1,2.14,2.14,0,0,0-1-.65,1.9,1.9,0,0,0-1.44.11c-.19.15-.11.37.1.49a3.86,3.86,0,0,0,.69.29,8.16,8.16,0,0,0,1.24.3C400.49,463.84,401,463.84,401,463.87Z" style="fill:#263238"></path><path d="M400.64,463.94a1.24,1.24,0,0,1-.15-.84,2,2,0,0,1,.32-.88,1.23,1.23,0,0,1,1-.63.47.47,0,0,1,.37.55,1.24,1.24,0,0,1-.19.54,4,4,0,0,1-.56.74,1.86,1.86,0,0,1-.69.5s.24-.22.57-.61a4,4,0,0,0,.49-.73c.17-.25.27-.71,0-.76s-.61.27-.79.52a2.15,2.15,0,0,0-.33.78A5.27,5.27,0,0,0,400.64,463.94Z" style="fill:#263238"></path><path d="M420.92,462.42s-.53-.05-1.38.06a6.16,6.16,0,0,0-3,1.29,6.07,6.07,0,0,0-1.85,2.69c-.28.81-.3,1.35-.34,1.34s0-.13,0-.37a5.26,5.26,0,0,1,.19-1,5.72,5.72,0,0,1,5-4.09,4.7,4.7,0,0,1,1,0C420.8,462.37,420.93,462.4,420.92,462.42Z" style="fill:#263238"></path><path d="M418.88,454.64a67.5,67.5,0,0,1,.2,7.7,30.25,30.25,0,0,1-.21-3.85A32.62,32.62,0,0,1,418.88,454.64Z" style="fill:#263238"></path><path d="M411.93,466.11a10.39,10.39,0,0,1-2.74.31,10.18,10.18,0,0,1-2.74-.19c0-.06,1.23,0,2.74,0S411.92,466.05,411.93,466.11Z" style="fill:#263238"></path><path d="M415.6,466.06c0,.05-.09.26-.21.54s-.19.54-.26.53-.1-.29.05-.62S415.56,466,415.6,466.06Z" style="fill:#263238"></path><path d="M417,464.32s-.08.24-.27.44-.38.32-.43.28.08-.24.27-.44S416.92,464.28,417,464.32Z" style="fill:#263238"></path><path d="M418.94,463.51c0,.06-.26.06-.54.16s-.47.25-.52.21.11-.3.45-.42S419,463.45,418.94,463.51Z" style="fill:#263238"></path><path d="M420.35,463.12c0,.06-.09.15-.24.22s-.3.06-.33,0,.09-.15.24-.22S420.32,463.06,420.35,463.12Z" style="fill:#263238"></path><polyline points="389.42 264.72 398.17 459.25 427.37 459.87 422.52 297.01 455.37 461.11 483.14 461.11 446.06 264.72" style="fill:#263238"></polyline><path d="M476.15,458.3c.15,0,.34.31.41.76s0,.82-.14.85-.34-.32-.41-.76S476,458.32,476.15,458.3Z" style="fill:#455a64"></path><path d="M475.08,451.93c.15,0,.4.66.55,1.54s.14,1.62,0,1.64-.4-.66-.55-1.54S474.93,452,475.08,451.93Z" style="fill:#455a64"></path><path d="M474,445.56c.15,0,.4.67.55,1.54s.14,1.62,0,1.64-.4-.66-.55-1.54S473.86,445.59,474,445.56Z" style="fill:#455a64"></path><path d="M472.94,439.19c.15,0,.4.66.55,1.54s.14,1.62,0,1.64-.4-.66-.55-1.54S472.78,439.21,472.94,439.19Z" style="fill:#455a64"></path><path d="M471.87,432.82c.15,0,.4.66.54,1.54s.15,1.62,0,1.64-.4-.66-.54-1.54S471.71,432.84,471.87,432.82Z" style="fill:#455a64"></path><path d="M470.79,426.45c.16,0,.4.66.55,1.54s.14,1.62,0,1.64-.4-.66-.55-1.54S470.64,426.47,470.79,426.45Z" style="fill:#455a64"></path><path d="M469.71,420.08c.16,0,.4.66.55,1.54s.15,1.62,0,1.64-.4-.66-.55-1.54S469.56,420.1,469.71,420.08Z" style="fill:#455a64"></path><path d="M468.63,413.71c.16,0,.4.66.55,1.54s.15,1.62,0,1.64-.4-.66-.55-1.54S468.48,413.73,468.63,413.71Z" style="fill:#455a64"></path><path d="M467.55,407.34c.15,0,.4.66.55,1.54s.14,1.62,0,1.64-.4-.66-.55-1.54S467.39,407.36,467.55,407.34Z" style="fill:#455a64"></path><path d="M466.46,401c.15,0,.4.67.55,1.54s.15,1.62,0,1.64-.4-.66-.55-1.54S466.3,401,466.46,401Z" style="fill:#455a64"></path><path d="M465.36,394.6c.16,0,.4.67.56,1.55s.14,1.61,0,1.64-.4-.67-.55-1.55S465.21,394.63,465.36,394.6Z" style="fill:#455a64"></path><path d="M464.26,388.24c.16,0,.41.66.56,1.54s.15,1.61,0,1.64-.4-.67-.55-1.54S464.11,388.26,464.26,388.24Z" style="fill:#455a64"></path><path d="M463.16,381.87c.15,0,.4.66.55,1.54s.16,1.62,0,1.64-.4-.66-.56-1.54S463,381.9,463.16,381.87Z" style="fill:#455a64"></path><path d="M462.05,375.51c.15,0,.4.66.55,1.54s.16,1.61,0,1.64-.4-.67-.56-1.54S461.89,375.53,462.05,375.51Z" style="fill:#455a64"></path><path d="M460.93,369.14c.15,0,.4.67.56,1.54s.15,1.62,0,1.64-.41-.66-.56-1.54S460.77,369.17,460.93,369.14Z" style="fill:#455a64"></path><path d="M459.8,362.78c.16,0,.41.66.56,1.54s.16,1.61,0,1.64-.41-.66-.57-1.54S459.65,362.81,459.8,362.78Z" style="fill:#455a64"></path><path d="M458.67,356.42c.15,0,.4.66.56,1.54s.16,1.61,0,1.64-.41-.66-.57-1.54S458.51,356.45,458.67,356.42Z" style="fill:#455a64"></path><path d="M457.53,350.06c.15,0,.4.66.56,1.54s.16,1.61,0,1.64-.41-.66-.57-1.54S457.37,350.09,457.53,350.06Z" style="fill:#455a64"></path><path d="M456.37,343.7c.16,0,.41.66.57,1.54s.17,1.61,0,1.64-.41-.66-.57-1.54S456.22,343.73,456.37,343.7Z" style="fill:#455a64"></path><path d="M455.21,337.35c.16,0,.41.66.57,1.53s.17,1.62,0,1.64-.41-.66-.57-1.53S455.06,337.37,455.21,337.35Z" style="fill:#455a64"></path><path d="M454,331c.16,0,.41.66.58,1.54s.16,1.61,0,1.64-.41-.66-.57-1.54S453.89,331,454,331Z" style="fill:#455a64"></path><path d="M452.86,324.64c.16,0,.41.66.58,1.54s.17,1.61,0,1.64-.41-.66-.57-1.54S452.71,324.67,452.86,324.64Z" style="fill:#455a64"></path><path d="M451.67,318.29c.15,0,.41.66.58,1.54s.17,1.61,0,1.64-.42-.66-.58-1.54S451.51,318.32,451.67,318.29Z" style="fill:#455a64"></path><path d="M450.46,311.94c.16,0,.42.66.58,1.54s.18,1.61,0,1.64-.42-.66-.58-1.54S450.31,312,450.46,311.94Z" style="fill:#455a64"></path><path d="M449.24,305.6c.16,0,.42.65.59,1.53s.18,1.61,0,1.64-.41-.66-.58-1.53S449.09,305.63,449.24,305.6Z" style="fill:#455a64"></path><path d="M448,299.26c.16,0,.42.65.59,1.53s.18,1.61,0,1.64-.42-.66-.59-1.54S447.86,299.29,448,299.26Z" style="fill:#455a64"></path><path d="M446.77,292.92c.15,0,.41.65.59,1.53s.18,1.6,0,1.64-.42-.66-.59-1.53S446.61,293,446.77,292.92Z" style="fill:#455a64"></path><path d="M445.5,286.58c.16,0,.42.65.6,1.53s.19,1.61,0,1.64-.42-.66-.6-1.53S445.35,286.61,445.5,286.58Z" style="fill:#455a64"></path><path d="M444.23,280.25c.15,0,.42.65.6,1.52s.19,1.61,0,1.64-.42-.65-.6-1.53S444.07,280.28,444.23,280.25Z" style="fill:#455a64"></path><path d="M442.93,273.91c.16,0,.43.65.6,1.53s.21,1.61.05,1.64-.42-.65-.6-1.53S442.78,273.94,442.93,273.91Z" style="fill:#455a64"></path><path d="M441.94,269.14c.16,0,.36.3.45.74s0,.83-.11.86-.36-.3-.45-.74S441.79,269.18,441.94,269.14Z" style="fill:#455a64"></path><path d="M422.34,458.28c.16,0,.3.35.32.8s-.08.82-.24.83-.3-.35-.32-.8S422.18,458.28,422.34,458.28Z" style="fill:#455a64"></path><path d="M422.07,451.8c.16,0,.31.71.35,1.61s-.07,1.62-.23,1.63-.31-.72-.34-1.61S421.91,451.8,422.07,451.8Z" style="fill:#455a64"></path><path d="M421.87,445.31c.16,0,.31.72.33,1.62s-.08,1.62-.24,1.63-.3-.72-.33-1.62S421.71,445.32,421.87,445.31Z" style="fill:#455a64"></path><path d="M421.71,438.83c.15,0,.3.72.32,1.61s-.09,1.63-.24,1.63-.31-.72-.33-1.61S421.55,438.83,421.71,438.83Z" style="fill:#455a64"></path><path d="M421.55,432.34c.16,0,.3.72.32,1.62s-.08,1.62-.24,1.63-.3-.72-.32-1.62S421.4,432.35,421.55,432.34Z" style="fill:#455a64"></path><path d="M421.38,425.85c.16,0,.31.72.33,1.62s-.08,1.62-.24,1.63-.3-.72-.33-1.62S421.23,425.86,421.38,425.85Z" style="fill:#455a64"></path><path d="M421.17,419.37c.16,0,.31.71.34,1.61s-.07,1.63-.23,1.63-.3-.72-.34-1.61S421,419.37,421.17,419.37Z" style="fill:#455a64"></path><path d="M420.9,412.89c.15,0,.31.71.35,1.61s-.06,1.62-.22,1.63-.31-.72-.35-1.61S420.74,412.89,420.9,412.89Z" style="fill:#455a64"></path><path d="M420.64,406.41c.16,0,.31.71.35,1.61s-.07,1.62-.22,1.63-.31-.72-.35-1.61S420.49,406.41,420.64,406.41Z" style="fill:#455a64"></path><path d="M420.42,399.92c.15,0,.31.72.34,1.61s-.08,1.63-.23,1.63-.31-.71-.34-1.61S420.26,399.93,420.42,399.92Z" style="fill:#455a64"></path><path d="M420.22,393.44c.16,0,.3.71.33,1.61s-.08,1.62-.24,1.63-.3-.72-.33-1.62S420.06,393.44,420.22,393.44Z" style="fill:#455a64"></path><path d="M420.05,387c.16,0,.3.72.32,1.61s-.08,1.63-.24,1.63-.3-.72-.32-1.61S419.89,387,420.05,387Z" style="fill:#455a64"></path><path d="M419.91,380.47c.16,0,.3.72.32,1.61s-.1,1.63-.25,1.63-.3-.72-.32-1.62S419.75,380.47,419.91,380.47Z" style="fill:#455a64"></path><path d="M419.8,374c.16,0,.3.72.31,1.62s-.1,1.62-.26,1.62-.29-.72-.31-1.61S419.64,374,419.8,374Z" style="fill:#455a64"></path><path d="M419.72,367.5c.16,0,.29.72.3,1.61s-.11,1.63-.26,1.63-.29-.72-.3-1.62S419.57,367.5,419.72,367.5Z" style="fill:#455a64"></path><path d="M419.68,361c.15,0,.28.72.29,1.62s-.12,1.62-.27,1.62-.29-.72-.3-1.62S419.52,361,419.68,361Z" style="fill:#455a64"></path><path d="M419.66,354.52c.16,0,.29.73.29,1.62s-.13,1.63-.28,1.63-.29-.73-.29-1.63S419.51,354.52,419.66,354.52Z" style="fill:#455a64"></path><path d="M419.68,348c.16,0,.28.72.28,1.62s-.14,1.62-.29,1.62-.28-.73-.28-1.62S419.52,348,419.68,348Z" style="fill:#455a64"></path><path d="M419.73,341.55c.16,0,.28.73.27,1.63s-.14,1.62-.3,1.61-.27-.72-.27-1.62S419.58,341.55,419.73,341.55Z" style="fill:#455a64"></path><path d="M419.82,335.07c.15,0,.27.73.26,1.62s-.15,1.62-.31,1.62-.27-.73-.26-1.63S419.66,335.06,419.82,335.07Z" style="fill:#455a64"></path><path d="M419.93,328.58c.16,0,.27.73.25,1.63s-.15,1.62-.31,1.61-.27-.73-.25-1.62S419.77,328.58,419.93,328.58Z" style="fill:#455a64"></path><path d="M420.08,322.09c.15,0,.26.74.24,1.63s-.17,1.62-.32,1.62-.27-.74-.25-1.63S419.92,322.09,420.08,322.09Z" style="fill:#455a64"></path><path d="M420.31,315.6c.15,0,.25.74.21,1.64s-.19,1.61-.34,1.61-.26-.74-.22-1.64S420.15,315.6,420.31,315.6Z" style="fill:#455a64"></path><path d="M420.68,309.13c.16,0,.24.74.18,1.63s-.23,1.61-.39,1.6-.23-.74-.18-1.63S420.53,309.11,420.68,309.13Z" style="fill:#455a64"></path><path d="M421.28,302.67c.15,0,.21.75.12,1.64s-.29,1.6-.45,1.58-.21-.75-.12-1.64S421.12,302.65,421.28,302.67Z" style="fill:#455a64"></path><path d="M421.9,297.84c.16,0,.23.41.17.85s-.24.79-.4.77-.23-.4-.16-.85S421.75,297.82,421.9,297.84Z" style="fill:#455a64"></path><path d="M417.66,267.19a5,5,0,0,1,.18,1.19c.09.77.18,1.88.3,3.25.22,2.75.48,6.56.74,10.76.13,2.09.24,4.09.35,5.92a18.33,18.33,0,0,0,.56,4.74,4.07,4.07,0,0,0,2,2.34,6.57,6.57,0,0,0,1.13.32s-.11,0-.32.05a2.33,2.33,0,0,1-.89-.17,4.09,4.09,0,0,1-2.26-2.4,17.34,17.34,0,0,1-.71-4.85c-.12-1.83-.25-3.82-.39-5.92-.26-4.2-.47-8-.58-10.76-.06-1.38-.1-2.5-.12-3.27A4.91,4.91,0,0,1,417.66,267.19Z" style="fill:#455a64"></path><path d="M420.66,269.77c0,.07-.25.27-.27.73a.82.82,0,0,0,.22.66.7.7,0,0,0,.76.11.73.73,0,0,0,.48-.61.85.85,0,0,0-.3-.63c-.34-.32-.68-.25-.7-.34s.36-.32.93,0a1.22,1.22,0,0,1,.59.94,1.26,1.26,0,0,1-2.14.88,1.22,1.22,0,0,1-.24-1.09C420.17,269.79,420.66,269.7,420.66,269.77Z" style="fill:#455a64"></path><path d="M448.14,274.38a5.58,5.58,0,0,1-2.43.93,10.25,10.25,0,0,1-10.88-4.87,5.52,5.52,0,0,1-.93-2.42c.09,0,.39.91,1.27,2.21a10.65,10.65,0,0,0,10.48,4.68C447.2,274.7,448.1,274.29,448.14,274.38Z" style="fill:#455a64"></path><path d="M399.57,267.19a4.12,4.12,0,0,1-.1,2.11,8.31,8.31,0,0,1-7.3,6.39,4.07,4.07,0,0,1-2.1-.18c0-.09.81,0,2.05-.22a8.7,8.7,0,0,0,7-6.1C399.46,268,399.48,267.19,399.57,267.19Z" style="fill:#455a64"></path><path d="M437.38,176.55a26.18,26.18,0,0,0-8-1.53h0a31.84,31.84,0,0,1-19.22,0h-.08a56.85,56.85,0,0,0-28,11.48l-13.75,10.7L376,226l11.2-6.44s-4.13,45.88-4,52.1l64.62-4.26-2.46-30.75-.83-26.69,18.47,3.4,12.44-24.81" style="fill:#407BFF"></path><path d="M432,174.93a3.41,3.41,0,0,1-.8.57,17.21,17.21,0,0,1-2.38,1.23A22,22,0,0,1,425,178a26.12,26.12,0,0,1-4.84.64,25.76,25.76,0,0,1-4.86-.36,21.66,21.66,0,0,1-3.85-1,17.71,17.71,0,0,1-2.45-1.08,3.77,3.77,0,0,1-.83-.52c.05-.1,1.28.55,3.41,1.22a25.73,25.73,0,0,0,3.8.9,28.79,28.79,0,0,0,4.77.3,28.32,28.32,0,0,0,4.74-.58,25.64,25.64,0,0,0,3.74-1.11C430.72,175.56,431.92,174.84,432,174.93Z" style="fill:#263238"></path><path d="M422.64,202.57a6,6,0,0,1,1-.06l2.94-.06,10.64-.13h.25v.25c0,2,0,4.15,0,6.42,0,1.14,0,2.29,0,3.52a7.56,7.56,0,0,1-5.88,6.85A7.52,7.52,0,0,1,423,215a8.13,8.13,0,0,1-.56-2.15,20.16,20.16,0,0,1,0-2c0-2.5.08-4.56.11-6.08,0-.65,0-1.18.05-1.62a1.83,1.83,0,0,1,0-.53,4.27,4.27,0,0,1,0,.61c0,.45,0,1,.05,1.67,0,1.49.06,3.52.11,6,0,.63,0,1.29.07,2a7,7,0,0,0,8.56,6,7,7,0,0,0,4.35-3.06,6.93,6.93,0,0,0,1.1-3.29c.05-1.15,0-2.35,0-3.48,0-2.27,0-4.43,0-6.42l.25.25-10.48-.13-3-.06A8.6,8.6,0,0,1,422.64,202.57Z" style="fill:#263238"></path><path d="M436.75,204.89s.15-.07.44-.1V205c-1,.11-3.75.19-7,.19a50.49,50.49,0,0,1-7.45-.28,48.07,48.07,0,0,1,7.45-.29c3.27,0,6,.08,7,.19V205C436.9,205,436.75,204.92,436.75,204.89Z" style="fill:#263238"></path><path d="M473.73,188.12a4.51,4.51,0,0,1-.45,1c-.4.74-.86,1.62-1.41,2.65l-4.67,8.72-4.55,8.78c-.54,1-1,1.91-1.39,2.65a4.16,4.16,0,0,1-.58,1,4.25,4.25,0,0,1,.38-1c.27-.66.69-1.59,1.23-2.74,1.07-2.3,2.61-5.44,4.41-8.86s3.53-6.47,4.82-8.65c.65-1.09,1.18-2,1.57-2.57A4.31,4.31,0,0,1,473.73,188.12Z" style="fill:#263238"></path><path d="M448.14,264.6c0,.15-14.39,1.13-32.15,2.18s-32.17,1.78-32.18,1.62,14.38-1.13,32.15-2.18S448.13,264.44,448.14,264.6Z" style="fill:#263238"></path><polygon points="369.47 201.48 358.33 209.03 361.21 230.93 375.26 223.33 369.47 201.48" style="fill:#ffbe9d"></polygon><path d="M513.93,134.84l2.86,5.86a8,8,0,0,0,2.49,3.25l3.5,2.7a1.68,1.68,0,0,1,.54.7l7.74,18.73a.52.52,0,0,1-.28.68l-10.54,4.35a.52.52,0,0,1-.68-.28l-7.69-18.62a1.7,1.7,0,0,1-.11-.92l.54-4.49a9.07,9.07,0,0,0-.54-4L510,136.48Z" style="fill:#407BFF"></path><polyline points="513.08 155.15 520.18 152.21 525.34 164.68 518.24 167.62" style="fill:#fafafa"></polyline><rect x="508.76" y="133.95" width="5.71" height="1.81" rx="0.83" transform="translate(1035.94 64.01) rotate(157.54)" style="fill:#407BFF"></rect><polygon points="513.52 142.13 516.8 140.77 515.07 137.17 511.99 138.44 513.52 142.13" style="fill:#fafafa"></polygon><path d="M515.66,161.38a2.79,2.79,0,1,0,1.51-3.64A2.79,2.79,0,0,0,515.66,161.38Z" style="fill:#407BFF"></path><path d="M513.3,155.68a9.72,9.72,0,0,1,1.77-.88c1.15-.52,2.79-1.23,4.76-2.07l.21-.09.09.22c.71,1.7,1.52,3.62,2.37,5.67l2.33,5.7.09.21-.22.09c-2,.79-3.64,1.45-4.82,1.89a11.77,11.77,0,0,1-1.88.63,9.64,9.64,0,0,1,1.78-.88c1.14-.52,2.78-1.23,4.75-2.07l-.13.3L522,158.73c-.83-2.06-1.62-4-2.32-5.7l.3.13c-2,.79-3.65,1.45-4.82,1.89A10.6,10.6,0,0,1,513.3,155.68Z" style="fill:#e0e0e0"></path><path d="M513.21,139.07c-.06-.13.4-.45,1-.71s1.17-.35,1.23-.22-.41.45-1,.71S513.26,139.2,513.21,139.07Z" style="fill:#e0e0e0"></path><path d="M513.76,140.41c-.06-.14.4-.45,1-.71s1.17-.36,1.23-.22-.4.45-1,.7S513.81,140.54,513.76,140.41Z" style="fill:#e0e0e0"></path><path d="M522.62,146.7l-2.34,4.56c-.26.51-.51,1.16-.17,1.62a1.06,1.06,0,0,0,1.17.27,2.69,2.69,0,0,0,1-.77,13.45,13.45,0,0,0,2.4-3.7,1.43,1.43,0,0,0-.39-1.56A2.22,2.22,0,0,0,522.62,146.7Z" style="fill:#ffbe9d"></path><path d="M525.81,151.79q-1.17,2.28-2.33,4.56c-.26.51-.52,1.16-.17,1.62a1,1,0,0,0,1.16.26,2.67,2.67,0,0,0,1-.76,13.32,13.32,0,0,0,2.39-3.71,1.4,1.4,0,0,0-.39-1.55A2.22,2.22,0,0,0,525.81,151.79Z" style="fill:#ffbe9d"></path><path d="M524,149.31q-1.17,2.28-2.33,4.56c-.26.51-.52,1.15-.17,1.61a1,1,0,0,0,1.16.27,2.6,2.6,0,0,0,1-.77,13.27,13.27,0,0,0,2.39-3.7s.82-1.75-.59-2.67S524,149.31,524,149.31Z" style="fill:#ffbe9d"></path><path d="M390.14,194.88a13.79,13.79,0,0,1,.94-3.71,14.17,14.17,0,0,1,1.44-3.55,14.26,14.26,0,0,1-.94,3.71A14.85,14.85,0,0,1,390.14,194.88Z" style="fill:#fafafa"></path><path d="M402.19,207.28a10.38,10.38,0,0,1-2.55-2.09,10.8,10.8,0,0,1-2.2-2.47,10.52,10.52,0,0,1,2.56,2.09A10.66,10.66,0,0,1,402.19,207.28Z" style="fill:#fafafa"></path><path d="M395.53,220.17a8.76,8.76,0,0,1-1.08-2.79,8.63,8.63,0,0,1-.58-2.93,8.76,8.76,0,0,1,1.08,2.79A8.63,8.63,0,0,1,395.53,220.17Z" style="fill:#fafafa"></path><path d="M396.92,233.49a25.73,25.73,0,0,1-7-1.9,13.21,13.21,0,0,1,3.59.7A12.77,12.77,0,0,1,396.92,233.49Z" style="fill:#fafafa"></path><path d="M415.39,218.47c.07.13-1.59,1.14-3.47,2.6a41.28,41.28,0,0,1-3.41,2.68,16.55,16.55,0,0,1,6.88-5.28Z" style="fill:#fafafa"></path><path d="M412.28,203.41a25,25,0,0,1,.21-5.06,24.29,24.29,0,0,1,.73-5,25.09,25.09,0,0,1-.21,5.07A24.12,24.12,0,0,1,412.28,203.41Z" style="fill:#fafafa"></path><path d="M410.06,183.47a35.84,35.84,0,0,1-7.8,3.81,36.44,36.44,0,0,1,7.8-3.81Z" style="fill:#fafafa"></path><path d="M428.46,190.33a33.41,33.41,0,0,1-5.72-6.08,33.41,33.41,0,0,1,5.72,6.08Z" style="fill:#fafafa"></path><path d="M430.38,210.25a8,8,0,0,1-1.81,2.27,8.5,8.5,0,0,1-2.19,1.91,8.35,8.35,0,0,1,1.81-2.27A8.27,8.27,0,0,1,430.38,210.25Z" style="fill:#fafafa"></path><path d="M427.86,231.8a16.78,16.78,0,0,1-2.46-3.31,16.52,16.52,0,0,1-2-3.6,16.53,16.53,0,0,1,2.45,3.31A16.33,16.33,0,0,1,427.86,231.8Z" style="fill:#fafafa"></path><path d="M414.8,238a11.59,11.59,0,0,1-3.16-2.44,11.47,11.47,0,0,1-2.54-3.07,23.78,23.78,0,0,1,2.9,2.7A23.32,23.32,0,0,1,414.8,238Z" style="fill:#fafafa"></path><path d="M401.88,245.46c.09.13-1.63,1.36-3.45,3.19-1.29,1.28-2.29,2.51-2.79,3.08l-.15-.17c.33-.12.51-.16.53-.12s-.13.15-.43.33l-.36.22.21-.4a16.9,16.9,0,0,1,2.62-3.31A11.83,11.83,0,0,1,401.88,245.46Z" style="fill:#fafafa"></path><path d="M415.32,256.53a20,20,0,0,1-5.61-7.11,37.84,37.84,0,0,1,2.8,3.55A38.37,38.37,0,0,1,415.32,256.53Z" style="fill:#fafafa"></path><path d="M434.51,249a58.84,58.84,0,0,1-8.73,6.67A28.78,28.78,0,0,1,430,252.1,30.29,30.29,0,0,1,434.51,249Z" style="fill:#fafafa"></path><path d="M427.93,244.69c.05,0,0,.36-.11.94l-.06.31-.22-.27c-.51-.64-1.3-1.72-2.15-3a20.45,20.45,0,0,1-2.37-3.94,20.13,20.13,0,0,1,2.8,3.64c.85,1.24,1.57,2.37,2,3.09l-.28,0C427.72,245,427.87,244.67,427.93,244.69Z" style="fill:#fafafa"></path><path d="M443.35,238.78a13.41,13.41,0,0,1-3.05-4.39,13.84,13.84,0,0,1-1.61-5.09c.16,0,.79,2.26,2.08,4.86S443.47,238.68,443.35,238.78Z" style="fill:#fafafa"></path><path d="M400.36,264.25a31.72,31.72,0,0,1-5.43-1.83,30.93,30.93,0,0,1-5.23-2.33,64,64,0,0,1,10.66,4.16Z" style="fill:#fafafa"></path><path d="M442.19,216.35a15.38,15.38,0,0,1-2.42,3.26,16.28,16.28,0,0,1-2.82,2.93,15.38,15.38,0,0,1,2.42-3.26A16.28,16.28,0,0,1,442.19,216.35Z" style="fill:#fafafa"></path><path d="M443.35,203.6a17.7,17.7,0,0,1-2.39-5.11,17.33,17.33,0,0,1-1.14-5.52c.16,0,.65,2.44,1.63,5.36S443.49,203.53,443.35,203.6Z" style="fill:#fafafa"></path><path d="M444.86,185.23a22.57,22.57,0,0,1-5.69-.22,21.83,21.83,0,0,1-5.58-1.17,54.14,54.14,0,0,1,5.64.65A53.89,53.89,0,0,1,444.86,185.23Z" style="fill:#fafafa"></path><path d="M452.2,195.78a21.19,21.19,0,0,1,1.77-4.29,21.1,21.1,0,0,1,2.24-4.07,20.75,20.75,0,0,1-1.77,4.29A21.1,21.1,0,0,1,452.2,195.78Z" style="fill:#fafafa"></path><path d="M460.07,205.31a7.14,7.14,0,0,1-3.31,0,7.22,7.22,0,0,1-3.16-1,20.87,20.87,0,0,1,3.23.46A19.52,19.52,0,0,1,460.07,205.31Z" style="fill:#fafafa"></path><path d="M464.08,199a17.61,17.61,0,0,1,.16-4.3,17.37,17.37,0,0,1,.68-4.26,18.31,18.31,0,0,1-.16,4.31A18.56,18.56,0,0,1,464.08,199Z" style="fill:#fafafa"></path><path d="M509.34,132.4a10.18,10.18,0,0,0-.58-3.6,3.43,3.43,0,0,0-2.71-2.19,2.1,2.1,0,0,0-2.26,2.23c.19,1,1.29,1.64,2.3,2s2.69.65,3.25,1.56" style="fill:#455a64"></path><path d="M510.15,129a8.41,8.41,0,0,0,1.07-5,2.28,2.28,0,0,0-.86-1.79,1.48,1.48,0,0,0-1.58.08,2,2,0,0,0-.81,1.41,4.37,4.37,0,0,0,.82,2.71A8,8,0,0,1,510,129" style="fill:#455a64"></path><path d="M389,200.17c.14,0-.2,4.59-.76,10.21A102,102,0,0,1,387,220.54a97.71,97.71,0,0,1,.75-10.21A97.73,97.73,0,0,1,389,200.17Z" style="fill:#263238"></path></g><g id="freepik--Plants--inject-6"><path d="M574.44,408.15a11.79,11.79,0,0,0-8.15,4.26,20.78,20.78,0,0,0-4.1,8.44c-1.53,5.91-.5,12.86,1.23,18.71,6.37-2.34,10.24-9.18,12-12.77,2.77-5.68,4.31-17.62-1-18.64" style="fill:#455a64"></path><path d="M554.3,446.78a10,10,0,0,0,.39-10.06,13.33,13.33,0,0,0-8.08-6.37c-1.56-.47-3.37-.65-4.71.27a4.27,4.27,0,0,0-1.62,4,8.81,8.81,0,0,0,1.87,4.11c3.14,4.17,6.94,7.64,12.15,8" style="fill:#455a64"></path><path d="M553.77,466.49a7.86,7.86,0,0,0,.27-1.23c.17-.87.38-2,.63-3.36a35,35,0,0,0,.6-11.29A21.65,21.65,0,0,0,551,440.18a15,15,0,0,0-2.44-2.42,8.41,8.41,0,0,0-.77-.54,1.09,1.09,0,0,0-.28-.16,22.86,22.86,0,0,1,3.24,3.32,22.21,22.21,0,0,1,4.09,10.29,37.61,37.61,0,0,1-.48,11.17c-.21,1.43-.39,2.59-.49,3.39A7.3,7.3,0,0,0,553.77,466.49Z" style="fill:#263238"></path><path d="M572.46,417.14a3.05,3.05,0,0,0-.25.49l-.65,1.42c-.55,1.24-1.33,3.05-2.27,5.29-1.89,4.48-4.4,10.71-7,17.65s-4.85,13.28-6.4,17.88c-.78,2.31-1.39,4.18-1.8,5.47-.18.62-.34,1.11-.45,1.5a3.91,3.91,0,0,0-.14.53,2.1,2.1,0,0,0,.22-.5l.54-1.47c.47-1.33,1.13-3.17,1.92-5.42,1.63-4.58,3.91-10.9,6.53-17.83s5.09-13.18,6.9-17.69c.89-2.22,1.61-4,2.14-5.34.23-.6.42-1.08.57-1.46A3.22,3.22,0,0,0,572.46,417.14Z" style="fill:#263238"></path><path d="M561.23,453.39a23.44,23.44,0,0,1,18.1-11.46c1.89-.16,4.16.14,5,1.83s-.25,3.71-1.53,5.11a20,20,0,0,1-21.65,5" style="fill:#455a64"></path><path d="M576.51,447a5.92,5.92,0,0,0-1.19.06,8.91,8.91,0,0,0-1.37.17,17.74,17.74,0,0,0-1.81.35,20.51,20.51,0,0,0-2.14.62,22.06,22.06,0,0,0-2.39.93,25.73,25.73,0,0,0-5,3,26.63,26.63,0,0,0-4.14,4.16,24.33,24.33,0,0,0-1.45,2.12,18.5,18.5,0,0,0-1.07,1.95,16.21,16.21,0,0,0-.74,1.69,10.52,10.52,0,0,0-.46,1.31,6.31,6.31,0,0,0-.3,1.14c.1,0,.54-1.6,1.77-4a22.08,22.08,0,0,1,1.11-1.91,22.57,22.57,0,0,1,1.47-2.05,25.86,25.86,0,0,1,4.09-4.08,27.25,27.25,0,0,1,4.92-3c.81-.36,1.58-.71,2.34-1a20.51,20.51,0,0,1,2.1-.65C574.83,447.2,576.52,447.1,576.51,447Z" style="fill:#263238"></path><path d="M162.91,334.89c-5.67.91-8.2,7.88-7.7,13.59s2.84,11.31,2.21,17c-.79,7.24-6.27,13.36-6.9,20.62-.76,8.56,5.29,16.15,7.1,24.55.88,4.09.76,8.41,2.28,12.3a15.38,15.38,0,0,0,29.7-5.3c.13-6.58-3.93-12.77-3.43-19.32.36-4.85,3.2-9.44,2.59-14.26-.72-5.73-6-9.81-7.91-15.27s-.08-11.5-.72-17.25c-1.16-10.31-6.88-17.49-17.22-16.67" style="fill:#407BFF"></path><path d="M134,384.81c-1,9.55,3.26,20.79,8.18,29a45.53,45.53,0,0,0,21.38,18.56c1,.42,2.24.77,3.08.08a3,3,0,0,0,.78-2.45A46.87,46.87,0,0,0,134,384.81" style="fill:#407BFF"></path><g style="opacity:0.2"><path d="M134,384.81c-1,9.55,3.26,20.79,8.18,29a45.53,45.53,0,0,0,21.38,18.56c1,.42,2.24.77,3.08.08a3,3,0,0,0,.78-2.45A46.87,46.87,0,0,0,134,384.81"></path></g><path d="M175.59,452.38a3,3,0,0,1-.27-.53l-.68-1.57c-.57-1.36-1.43-3.33-2.52-5.74-2.19-4.82-5.42-11.38-9.49-18.36a203.24,203.24,0,0,0-11.34-17.27c-1.57-2.14-2.86-3.85-3.76-5l-1-1.36a2.39,2.39,0,0,1-.33-.5,2.72,2.72,0,0,1,.41.43c.3.34.66.77,1.11,1.3,1,1.13,2.3,2.81,3.9,4.92a172.74,172.74,0,0,1,11.51,17.23,176.6,176.6,0,0,1,9.37,18.48c1.05,2.43,1.85,4.42,2.37,5.81.23.65.43,1.18.58,1.61A2.21,2.21,0,0,1,175.59,452.38Z" style="fill:#263238"></path><path d="M169.44,361.32a5.09,5.09,0,0,1,.11.92c0,.64.11,1.52.19,2.63.15,2.33.36,5.63.62,9.68.52,8.17,1.24,19.46,2.12,31.92s1.74,23.75,2.37,31.92c.31,4,.57,7.33.74,9.67.08,1.1.14,2,.18,2.63a5.32,5.32,0,0,1,0,.92,5.15,5.15,0,0,1-.14-.91c-.06-.65-.16-1.52-.28-2.62l-.91-9.66c-.73-8.16-1.65-19.44-2.53-31.91s-1.54-23.76-2-31.94c-.19-4.06-.34-7.35-.45-9.69q-.06-1.67-.09-2.64A7.16,7.16,0,0,1,169.44,361.32Z" style="fill:#263238"></path><path d="M160.66,438.76h23.92v17.56A11.48,11.48,0,0,1,173.1,467.8h0a11.48,11.48,0,0,1-11.47-10.87Z" style="fill:#263238"></path></g></svg>