<svg xmlns="http://www.w3.org/2000/svg" viewBox="0 0 500 500"><g id="freepik--background-complete--inject-1"><rect y="382.4" width="500" height="0.25" style="fill:#ebebeb"></rect><rect x="416.78" y="398.49" width="33.12" height="0.25" style="fill:#ebebeb"></rect><rect x="322.53" y="401.21" width="8.69" height="0.25" style="fill:#ebebeb"></rect><rect x="396.59" y="389.21" width="19.19" height="0.25" style="fill:#ebebeb"></rect><rect x="52.46" y="390.89" width="43.19" height="0.25" style="fill:#ebebeb"></rect><rect x="104.56" y="390.89" width="6.33" height="0.25" style="fill:#ebebeb"></rect><rect x="131.47" y="395.11" width="93.68" height="0.25" style="fill:#ebebeb"></rect><path d="M237,337.8H43.91a5.71,5.71,0,0,1-5.7-5.71V60.66A5.71,5.71,0,0,1,43.91,55H237a5.71,5.71,0,0,1,5.71,5.71V332.09A5.71,5.71,0,0,1,237,337.8ZM43.91,55.2a5.46,5.46,0,0,0-5.45,5.46V332.09a5.46,5.46,0,0,0,5.45,5.46H237a5.47,5.47,0,0,0,5.46-5.46V60.66A5.47,5.47,0,0,0,237,55.2Z" style="fill:#ebebeb"></path><path d="M453.31,337.8H260.21a5.72,5.72,0,0,1-5.71-5.71V60.66A5.72,5.72,0,0,1,260.21,55h193.1A5.71,5.71,0,0,1,459,60.66V332.09A5.71,5.71,0,0,1,453.31,337.8ZM260.21,55.2a5.47,5.47,0,0,0-5.46,5.46V332.09a5.47,5.47,0,0,0,5.46,5.46h193.1a5.47,5.47,0,0,0,5.46-5.46V60.66a5.47,5.47,0,0,0-5.46-5.46Z" style="fill:#ebebeb"></path><rect x="58.73" y="111.91" width="381.54" height="66.04" style="fill:#f5f5f5"></rect><path d="M83.13,142.36V121.83H78.58v20.53a3.49,3.49,0,0,1-2.46,3.34h0a3.48,3.48,0,0,0-2.46,3.51L75.08,178H86.63l1.42-28.74a3.48,3.48,0,0,0-2.46-3.51h0A3.49,3.49,0,0,1,83.13,142.36Z" style="fill:#ebebeb"></path><path d="M112.27,147.73V127.38h-7v20.35a4.46,4.46,0,0,1-3.49,4.36h0a4.47,4.47,0,0,0-3.49,4.36V178h21v-21.5a4.47,4.47,0,0,0-3.49-4.36h0A4.47,4.47,0,0,1,112.27,147.73Z" style="fill:#ebebeb"></path><path d="M139.56,139.41v-14.7h-5.71v14.7a5.18,5.18,0,0,1-1.92,4h0a5.21,5.21,0,0,0-1.91,4V178h13.36V147.46a5.21,5.21,0,0,0-1.91-4h0A5.17,5.17,0,0,1,139.56,139.41Z" style="fill:#ebebeb"></path><path d="M168,143.08V124.71h-6.79v18.37a13.87,13.87,0,0,1-1.7,6.67h0a13.92,13.92,0,0,0-1.71,6.68V178h13.61V156.43a13.91,13.91,0,0,0-1.7-6.68h0A13.77,13.77,0,0,1,168,143.08Z" style="fill:#ebebeb"></path><path d="M195.23,139.08v-11.7h-5.36v11.7a6,6,0,0,1-3.8,5.61h0a6,6,0,0,0-3.79,5.91L183.62,178h17.85l1.35-27.35a6,6,0,0,0-3.79-5.91h0A6,6,0,0,1,195.23,139.08Z" style="fill:#ebebeb"></path><path d="M222.75,142.36V121.83h-4.56v20.53a3.48,3.48,0,0,1-2.46,3.34h0a3.49,3.49,0,0,0-2.45,3.51L214.7,178h11.54l1.43-28.74a3.48,3.48,0,0,0-2.46-3.51h0A3.49,3.49,0,0,1,222.75,142.36Z" style="fill:#ebebeb"></path><path d="M251.89,147.73V127.38h-7v20.35a4.46,4.46,0,0,1-3.49,4.36h0a4.47,4.47,0,0,0-3.5,4.36V178h21v-21.5a4.47,4.47,0,0,0-3.5-4.36h0A4.46,4.46,0,0,1,251.89,147.73Z" style="fill:#ebebeb"></path><path d="M279.18,139.41v-14.7h-5.72v14.7a5.17,5.17,0,0,1-1.91,4h0a5.21,5.21,0,0,0-1.91,4V178H283V147.46a5.21,5.21,0,0,0-1.91-4h0A5.17,5.17,0,0,1,279.18,139.41Z" style="fill:#ebebeb"></path><path d="M307.63,143.08V124.71h-6.78v18.37a13.88,13.88,0,0,1-1.71,6.67h0a13.91,13.91,0,0,0-1.7,6.68V178h13.61V156.43a13.92,13.92,0,0,0-1.71-6.68h0A13.88,13.88,0,0,1,307.63,143.08Z" style="fill:#ebebeb"></path><path d="M334.84,139.08v-11.7h-5.35v11.7a6,6,0,0,1-3.8,5.61h0a6.05,6.05,0,0,0-3.8,5.91L323.24,178h17.85l1.35-27.35a6.05,6.05,0,0,0-3.8-5.91h0A6,6,0,0,1,334.84,139.08Z" style="fill:#ebebeb"></path><path d="M362.37,142.36V121.83h-4.56v20.53a3.49,3.49,0,0,1-2.46,3.34h0a3.49,3.49,0,0,0-2.46,3.51L354.32,178h11.54l1.43-28.74a3.51,3.51,0,0,0-2.46-3.51h0A3.48,3.48,0,0,1,362.37,142.36Z" style="fill:#ebebeb"></path><path d="M391.51,147.73V127.38h-7v20.35a4.46,4.46,0,0,1-3.5,4.36h0a4.47,4.47,0,0,0-3.49,4.36V178h21v-21.5a4.48,4.48,0,0,0-3.5-4.36h0A4.46,4.46,0,0,1,391.51,147.73Z" style="fill:#ebebeb"></path><path d="M418.79,139.41v-14.7h-5.71v14.7a5.17,5.17,0,0,1-1.91,4h0a5.21,5.21,0,0,0-1.91,4V178h13.36V147.46a5.22,5.22,0,0,0-1.92-4h0A5.17,5.17,0,0,1,418.79,139.41Z" style="fill:#ebebeb"></path><rect x="58.73" y="262.74" width="381.54" height="66.04" style="fill:#f5f5f5"></rect><path d="M83.13,293.2V272.67H78.58V293.2a3.5,3.5,0,0,1-2.46,3.34h0a3.48,3.48,0,0,0-2.46,3.51l1.42,28.74H86.63l1.42-28.74a3.48,3.48,0,0,0-2.46-3.51h0A3.5,3.5,0,0,1,83.13,293.2Z" style="fill:#ebebeb"></path><path d="M112.27,298.57V278.22h-7v20.35a4.46,4.46,0,0,1-3.49,4.36h0a4.47,4.47,0,0,0-3.49,4.36v21.5h21v-21.5a4.47,4.47,0,0,0-3.49-4.36h0A4.47,4.47,0,0,1,112.27,298.57Z" style="fill:#ebebeb"></path><path d="M139.56,290.25v-14.7h-5.71v14.7a5.18,5.18,0,0,1-1.92,4h0a5.21,5.21,0,0,0-1.91,4v30.49h13.36V298.3a5.21,5.21,0,0,0-1.91-4h0A5.17,5.17,0,0,1,139.56,290.25Z" style="fill:#ebebeb"></path><path d="M168,293.92V275.55h-6.79v18.37a13.87,13.87,0,0,1-1.7,6.67h0a13.91,13.91,0,0,0-1.71,6.67v21.53h13.61V307.26a13.9,13.9,0,0,0-1.7-6.67h0A13.77,13.77,0,0,1,168,293.92Z" style="fill:#ebebeb"></path><path d="M195.23,289.92v-11.7h-5.36v11.7a6,6,0,0,1-3.8,5.61h0a6,6,0,0,0-3.79,5.91l1.34,27.35h17.85l1.35-27.35a6,6,0,0,0-3.79-5.91h0A6,6,0,0,1,195.23,289.92Z" style="fill:#ebebeb"></path><path d="M222.75,293.2V272.67h-4.56V293.2a3.49,3.49,0,0,1-2.46,3.34h0a3.49,3.49,0,0,0-2.45,3.51l1.42,28.74h11.54l1.43-28.74a3.48,3.48,0,0,0-2.46-3.51h0A3.5,3.5,0,0,1,222.75,293.2Z" style="fill:#ebebeb"></path><path d="M251.89,298.57V278.22h-7v20.35a4.46,4.46,0,0,1-3.49,4.36h0a4.47,4.47,0,0,0-3.5,4.36v21.5h21v-21.5a4.47,4.47,0,0,0-3.5-4.36h0A4.46,4.46,0,0,1,251.89,298.57Z" style="fill:#ebebeb"></path><path d="M279.18,290.25v-14.7h-5.72v14.7a5.17,5.17,0,0,1-1.91,4h0a5.21,5.21,0,0,0-1.91,4v30.49H283V298.3a5.21,5.21,0,0,0-1.91-4h0A5.17,5.17,0,0,1,279.18,290.25Z" style="fill:#ebebeb"></path><path d="M307.63,293.92V275.55h-6.78v18.37a13.88,13.88,0,0,1-1.71,6.67h0a13.9,13.9,0,0,0-1.7,6.67v21.53h13.61V307.26a13.91,13.91,0,0,0-1.71-6.67h0A13.88,13.88,0,0,1,307.63,293.92Z" style="fill:#ebebeb"></path><path d="M334.84,289.92v-11.7h-5.35v11.7a6,6,0,0,1-3.8,5.61h0a6.05,6.05,0,0,0-3.8,5.91l1.35,27.35h17.85l1.35-27.35a6.05,6.05,0,0,0-3.8-5.91h0A6,6,0,0,1,334.84,289.92Z" style="fill:#ebebeb"></path><path d="M362.37,293.2V272.67h-4.56V293.2a3.5,3.5,0,0,1-2.46,3.34h0a3.49,3.49,0,0,0-2.46,3.51l1.43,28.74h11.54l1.43-28.74a3.51,3.51,0,0,0-2.46-3.51h0A3.49,3.49,0,0,1,362.37,293.2Z" style="fill:#ebebeb"></path><path d="M391.51,298.57V278.22h-7v20.35a4.46,4.46,0,0,1-3.5,4.36h0a4.47,4.47,0,0,0-3.49,4.36v21.5h21v-21.5a4.48,4.48,0,0,0-3.5-4.36h0A4.46,4.46,0,0,1,391.51,298.57Z" style="fill:#ebebeb"></path><path d="M418.79,290.25v-14.7h-5.71v14.7a5.17,5.17,0,0,1-1.91,4h0a5.21,5.21,0,0,0-1.91,4v30.49h13.36V298.3a5.22,5.22,0,0,0-1.92-4h0A5.17,5.17,0,0,1,418.79,290.25Z" style="fill:#ebebeb"></path><rect x="58.73" y="186.41" width="381.54" height="66.04" style="fill:#f5f5f5"></rect><path d="M416.16,213.91v-14.7h5.71v14.7a5.21,5.21,0,0,0,1.91,4h0a5.17,5.17,0,0,1,1.91,4v30.49H412.33V222a5.18,5.18,0,0,1,1.92-4h0A5.24,5.24,0,0,0,416.16,213.91Z" style="fill:#ebebeb"></path><path d="M387.7,217.58V199.21h6.78v18.37a13.92,13.92,0,0,0,1.71,6.68h0a13.88,13.88,0,0,1,1.71,6.67v21.52H384.28V230.93a13.88,13.88,0,0,1,1.71-6.67h0A13.92,13.92,0,0,0,387.7,217.58Z" style="fill:#ebebeb"></path><path d="M360.49,213.59v-11.7h5.35v11.7a6.05,6.05,0,0,0,3.8,5.61h0a6,6,0,0,1,3.8,5.91l-1.35,27.34H354.24l-1.34-27.34a6,6,0,0,1,3.79-5.91h0A6,6,0,0,0,360.49,213.59Z" style="fill:#ebebeb"></path><path d="M333,216.87V196.34h4.55v20.53A3.49,3.49,0,0,0,340,220.2h0a3.49,3.49,0,0,1,2.46,3.51L341,252.45H329.47l-1.42-28.74a3.49,3.49,0,0,1,2.46-3.51h0A3.49,3.49,0,0,0,333,216.87Z" style="fill:#ebebeb"></path><path d="M303.83,222.24V201.89h7v20.35a4.48,4.48,0,0,0,3.5,4.36h0A4.45,4.45,0,0,1,317.8,231v21.49h-21V231a4.45,4.45,0,0,1,3.49-4.36h0A4.48,4.48,0,0,0,303.83,222.24Z" style="fill:#ebebeb"></path><path d="M276.54,213.91v-14.7h5.71v14.7a5.22,5.22,0,0,0,1.92,4h0a5.17,5.17,0,0,1,1.91,4v30.49H272.72V222a5.17,5.17,0,0,1,1.91-4h0A5.21,5.21,0,0,0,276.54,213.91Z" style="fill:#ebebeb"></path><path d="M248.08,217.58V199.21h6.79v18.37a13.91,13.91,0,0,0,1.7,6.68h0a13.88,13.88,0,0,1,1.71,6.67v21.52H244.67V230.93a13.87,13.87,0,0,1,1.7-6.67h0A13.92,13.92,0,0,0,248.08,217.58Z" style="fill:#ebebeb"></path><path d="M220.87,213.59v-11.7h5.36v11.7a6,6,0,0,0,3.8,5.61h0a6,6,0,0,1,3.79,5.91l-1.35,27.34H214.63l-1.35-27.34a6,6,0,0,1,3.79-5.91h0A6,6,0,0,0,220.87,213.59Z" style="fill:#ebebeb"></path><path d="M193.35,216.87V196.34h4.55v20.53a3.48,3.48,0,0,0,2.47,3.33h0a3.49,3.49,0,0,1,2.45,3.51l-1.42,28.74H189.86l-1.43-28.74a3.49,3.49,0,0,1,2.46-3.51h0A3.49,3.49,0,0,0,193.35,216.87Z" style="fill:#ebebeb"></path><path d="M164.21,222.24V201.89h7v20.35a4.47,4.47,0,0,0,3.49,4.36h0a4.46,4.46,0,0,1,3.5,4.36v21.49h-21V231a4.45,4.45,0,0,1,3.49-4.36h0A4.47,4.47,0,0,0,164.21,222.24Z" style="fill:#ebebeb"></path><path d="M136.92,213.91v-14.7h5.72v14.7a5.21,5.21,0,0,0,1.91,4h0a5.17,5.17,0,0,1,1.91,4v30.49H133.1V222a5.17,5.17,0,0,1,1.91-4h0A5.21,5.21,0,0,0,136.92,213.91Z" style="fill:#ebebeb"></path><path d="M108.47,217.58V199.21h6.78v18.37a13.92,13.92,0,0,0,1.71,6.68h0a13.87,13.87,0,0,1,1.7,6.67v21.52H105.05V230.93a13.88,13.88,0,0,1,1.71-6.67h0A13.92,13.92,0,0,0,108.47,217.58Z" style="fill:#ebebeb"></path><path d="M81.26,213.59v-11.7h5.35v11.7a6.05,6.05,0,0,0,3.8,5.61h0a6,6,0,0,1,3.79,5.91l-1.34,27.34H75l-1.35-27.34a6,6,0,0,1,3.8-5.91h0A6.05,6.05,0,0,0,81.26,213.59Z" style="fill:#ebebeb"></path><polygon points="153.8 168.41 96.05 168.41 123.33 135.87 126.52 135.87 153.8 168.41" style="fill:#e0e0e0"></polygon><rect x="123.42" y="66.34" width="3" height="74.79" style="fill:#e0e0e0"></rect><polygon points="403.95 168.41 346.2 168.41 373.48 135.87 376.67 135.87 403.95 168.41" style="fill:#e0e0e0"></polygon><rect x="373.58" y="66.34" width="3" height="74.79" style="fill:#e0e0e0"></rect></g><g id="freepik--Shadow--inject-1"><ellipse id="freepik--path--inject-1" cx="250" cy="416.24" rx="193.89" ry="11.32" style="fill:#f5f5f5"></ellipse></g><g id="freepik--Character--inject-1"><path d="M244.42,258.1a41.56,41.56,0,0,1,28.11-8.57c7.42.69,11.88,1.74,18.54,2.91,10.47,2,22.21,4.28,32.52,6.08,8.73,1.46,17.71,3.14,26.36,3.26,0,0,0,0,0,0-.21.09-.4.14-.66.25a11.14,11.14,0,0,0-2.37,1.29c-2.88,1.83-5.57,6.75-4.61,9.91.05,0,0-.28-.06-.67a39.16,39.16,0,0,0-3.19-7.35,269,269,0,0,0-17.17-26.57c-3.07-4.3-6.63-9-9.89-13.18l-1.69-2.16a4.37,4.37,0,0,1-1.28-2.49L322.13,208a5.31,5.31,0,0,1,2.61,1.55l2.16,1.9,4.29,3.83c13.79,12.95,42.95,38.31,42,58.45a20.18,20.18,0,0,1-11.78,17.5,34.3,34.3,0,0,1-11.78,2.58,130.69,130.69,0,0,1-19.27-.51c-11.55-1-23.06-2.64-34.35-4.45-6.49-1-15.38-2.64-21.91-3.71-3.85-.59-5-1.16-7.88.37h0l.07-.06.44-.35-22.3-27Z" style="fill:#407BFF"></path><path d="M244.42,258.1a41.56,41.56,0,0,1,28.11-8.57c7.42.69,11.88,1.74,18.54,2.91,10.47,2,22.21,4.28,32.52,6.08,8.73,1.46,17.71,3.14,26.36,3.26,0,0,0,0,0,0-.21.09-.4.14-.66.25a11.14,11.14,0,0,0-2.37,1.29c-2.88,1.83-5.57,6.75-4.61,9.91.05,0,0-.28-.06-.67a39.16,39.16,0,0,0-3.19-7.35,269,269,0,0,0-17.17-26.57c-3.07-4.3-6.63-9-9.89-13.18l-1.69-2.16a4.37,4.37,0,0,1-1.28-2.49L322.13,208a5.31,5.31,0,0,1,2.61,1.55l2.16,1.9,4.29,3.83c13.79,12.95,42.95,38.31,42,58.45a20.18,20.18,0,0,1-11.78,17.5,34.3,34.3,0,0,1-11.78,2.58,130.69,130.69,0,0,1-19.27-.51c-11.55-1-23.06-2.64-34.35-4.45-6.49-1-15.38-2.64-21.91-3.71-3.85-.59-5-1.16-7.88.37h0l.07-.06.44-.35-22.3-27Z" style="fill:#fff;opacity:0.6000000000000001"></path><path d="M305.38,290.27c-3.15-.45-6.27-.94-9.38-1.45-3.73-.59-7.44-1.22-11.11-1.86l-.79-.13,1.11-23S300.15,272.68,305.38,290.27Z" style="opacity:0.2"></path><path d="M322.51,225.31l-19.36-1.64,8.4-21.73s17.34,3.61,16.91,13.14Z" style="fill:#ebb376"></path><path d="M290,208.35l4.22-7.12a6.73,6.73,0,0,1,8.24-2.83l9.06,3.54-8.4,21.73-10.65-6A6.72,6.72,0,0,1,290,208.35Z" style="fill:#ebb376"></path><path d="M188.9,360.2l.17.52c5,21.58,1.2,20.84,4.54,38.44a16.61,16.61,0,0,0-.21,5.42H297.66c3.4-2.27,4.79-11-.76-16-2.47-32.37.1-57.7.31-73.95h0c0-2.87,0-5.7-.06-8.58a158.46,158.46,0,0,0-2.68-25.19c-2.32-12.7-22.28-31.41-22.29-31.41-7.6-.81-11.31.24-17.6.74A325.5,325.5,0,0,0,188.29,263,25.45,25.45,0,0,0,172,278.63a25.07,25.07,0,0,0-.14,16.78C181.32,322.93,182.11,339.48,188.9,360.2Z" style="fill:#263238"></path><path d="M258.29,293.63c0,3.12-.1,6.25-.37,9.35-1.63-2.54-6-6-11.7-9.94-14.42-10-37.3-23.26-45.67-32.93l35.22-1s1.71-5.12,6.46-5.38C252.35,255,258.17,273.7,258.29,293.63Z" style="fill:#407BFF"></path><path d="M258.29,293.63c0,3.12-.1,6.25-.37,9.35-1.63-2.54-6-6-11.7-9.94-14.42-10-37.3-23.26-45.67-32.93l35.22-1s1.71-5.12,6.46-5.38C252.35,255,258.17,273.7,258.29,293.63Z" style="fill:#fff;opacity:0.7000000000000001"></path><path d="M258.29,293.63c0,3.12-.1,6.25-.37,9.35-1.63-2.54-6-6-11.7-9.94l-4.43-18.42-12.91-9,5.8-8,11.24,2.54.7,12.38Z" style="fill:#407BFF"></path><path d="M188.9,360.2c-6.79-20.72-7.58-37.27-17-64.79a25.07,25.07,0,0,1,.14-16.78c11.76-10.39,29.39,11.34,31.88,41.09C205.54,339.42,198.21,357.41,188.9,360.2Z" style="fill:#407BFF"></path><path d="M204.13,325.32c0,17.41-6.8,32.36-15.23,34.88-4.67-14.24-6.5-26.53-10.27-41.76-1.62-6.55-3.59-13.66-6.3-21.69-.15-.44-.3-.89-.46-1.34a25.07,25.07,0,0,1,.14-16.78c10.23-9,24.91,6.24,30.2,30a84.1,84.1,0,0,1,1.68,11.13C204.05,321.61,204.12,323.49,204.13,325.32Z" style="fill:#fff;opacity:0.7000000000000001"></path><path d="M265.38,323c.19,1.4-.38,2.64-1.27,2.75s-1.75-.92-1.94-2.32.37-2.64,1.26-2.76S265.19,321.59,265.38,323Z" style="fill:#fff"></path><path d="M268.79,349.88c.19,1.41-.38,2.65-1.27,2.76s-1.76-.92-1.94-2.32.37-2.64,1.26-2.76S268.6,348.48,268.79,349.88Z" style="fill:#fff"></path><path d="M272.4,378.65c.19,1.41-.38,2.64-1.27,2.76s-1.76-.92-1.95-2.33.38-2.64,1.27-2.76S272.21,377.25,272.4,378.65Z" style="fill:#fff"></path><path d="M215.05,324a30.93,30.93,0,0,1-10.92,1.3c-9-.39-18.49-3.74-25.5-6.88-1.62-6.55-3.59-13.66-6.3-21.69a197.9,197.9,0,0,1,29.88,11.84C214.83,314.92,222.94,321.45,215.05,324Z" style="opacity:0.2"></path><path d="M297.15,306.05c-15.88-15.66-25-56.6-25-56.6s20,18.71,22.29,31.41A158.46,158.46,0,0,1,297.15,306.05Z" style="fill:#407BFF"></path><path d="M297.15,306.05c-15.88-15.66-25-56.6-25-56.6s20,18.71,22.29,31.41A158.46,158.46,0,0,1,297.15,306.05Z" style="fill:#fff;opacity:0.7000000000000001"></path><path d="M204,219.11c3.36,17.9,1.9,28.84-.3,39.27a2.43,2.43,0,0,0,1.07,2.58c8,4.89,16.81,1.62,31-.84,14-2.42,15-.3,10.75-4.61a5.75,5.75,0,0,0-2.16-1.36c-10.65-3.9-12.41-11.46-10.59-16.55Z" style="fill:#ebb376"></path><path d="M204,219.12l29.82,18.48a11,11,0,0,0,1.28,9.84,21.69,21.69,0,0,1-15.65-2.53c-7.6-4.36-11.07-10.53-14.44-19.54C204.77,223.39,204.43,221.32,204,219.12Z" style="opacity:0.2"></path><path d="M230,177.55s13,7,10.31,29.47S207.76,187.28,230,177.55Z" style="fill:#ebb376"></path><path d="M230,177.55s13,7,10.31,29.47S207.76,187.28,230,177.55Z" style="opacity:0.5"></path><path d="M194.18,208.54c4.32,16.9,2.4,20.1,12.72,27.15,15.52,10.6,37.28,9.12,37-8.79-.2-16.13-4-44.7-22-48.15C204.16,175.35,189.86,191.64,194.18,208.54Z" style="fill:#ebb376"></path><path d="M215.21,206.33c.33,1.45,1,1.45,2,1.22s1.79-.59,1.45-2-1.37-2.44-2.32-2.21S214.87,204.88,215.21,206.33Z" style="fill:#263238"></path><path d="M233.26,204.05c.33,1.45,1,1.45,2,1.22s1.79-.59,1.45-2-1.37-2.44-2.31-2.21S232.92,202.6,233.26,204.05Z" style="fill:#263238"></path><path d="M230.38,203.92s3.64,6,7,8.68c-1.68,2.21-5.21,2-5.21,2Z" style="fill:#d58745"></path><path d="M211.26,200.3a.9.9,0,0,1-.42-.13.86.86,0,0,1-.29-1.2,8.76,8.76,0,0,1,6.73-4.33.87.87,0,0,1,.9.84.9.9,0,0,1-.85.91h0a7,7,0,0,0-5.29,3.49A.88.88,0,0,1,211.26,200.3Z" style="fill:#263238"></path><path d="M239,196a.9.9,0,0,1-.82-.12,6.84,6.84,0,0,0-6.17-1.19.87.87,0,0,1-1.12-.52.88.88,0,0,1,.52-1.12,8.59,8.59,0,0,1,7.81,1.42A.89.89,0,0,1,239,196Z" style="fill:#263238"></path><path d="M230.09,223.48c-7.39,0-10.17-4.2-10.31-4.41a.38.38,0,0,1,.63-.41c0,.06,3.71,5.54,13.76,3.67a.38.38,0,0,1,.44.3.37.37,0,0,1-.3.44A22.89,22.89,0,0,1,230.09,223.48Z" style="fill:#263238"></path><path d="M202.64,194.35s-.18-6,4.66-8.66,18.75,2.37,26.4-4.56c0,0,6.79-11.87-7.21-15.84s-37.8,5.15-44,16.92-1.8,19.8-1.8,19.8a12.08,12.08,0,0,1,.27-5.34s-.45,8,5.63,12.67Z" style="fill:#263238"></path><path d="M198.13,219.79c8.33,3.73,5.68-4.27,5-5-2.8-3.41-1.17-8.68.76-16.08.87-3.29-.52-8.38-.52-8.38s-9.89-.9-15.53,1.14c-5.82,2.11-5.55,6.94-5.55,6.94C185.15,213.37,191.42,216.78,198.13,219.79Z" style="fill:#ebb376"></path><path d="M198.13,219.79c8.33,3.73,5.68-4.27,5-5-2.8-3.41-1.17-8.68.76-16.08.87-3.29-.52-8.38-.52-8.38s-9.89-.9-15.53,1.14c-5.82,2.11-5.55,6.94-5.55,6.94C185.15,213.37,191.42,216.78,198.13,219.79Z" style="opacity:0.5"></path><path d="M188.55,221.45A15.86,15.86,0,0,0,198,228.3c5,1.12,6.63-3.84,4.59-8.77-1.83-4.44-6.62-10.36-11.27-9.26S185.73,217.12,188.55,221.45Z" style="fill:#ebb376"></path><path d="M204.91,249.41s6.28,5.22,29.78,8.13c0,0,2.16-5.8.43-10.1l11.94,3.16s5.86,5.49,7.58,17.36l-18.81-7.84-9.07,19.79S203.62,269.19,199.11,259C199.11,259,202.31,247.89,204.91,249.41Z" style="fill:#407BFF"></path><path d="M204.91,249.41s6.28,5.22,29.78,8.13c0,0,2.16-5.8.43-10.1l11.94,3.16s5.86,5.49,7.58,17.36l-18.81-7.84-9.07,19.79S203.62,269.19,199.11,259C199.11,259,202.31,247.89,204.91,249.41Z" style="fill:#fff;opacity:0.6000000000000001"></path><path d="M305,256.41q-10.44-5.78-20.87-11.56c-.13-4.34-.31-8.72-.51-13.11C293.76,216,305.4,201,317.21,186.21l20,11.06c-6.25,17.86-12.78,35.68-20.78,52.61C312.59,252,308.78,254.21,305,256.41Z" style="fill:#263238"></path><path d="M305,256.41q-10.44-5.78-20.87-11.56c-.13-4.34-.31-8.72-.51-13.11C293.76,216,305.4,201,317.21,186.21l20,11.06c-6.25,17.86-12.78,35.68-20.78,52.61C312.59,252,308.78,254.21,305,256.41Z" style="fill:#fff;opacity:0.6000000000000001"></path><path d="M283.65,231.74l32.76,18.14S308.49,242.43,283.65,231.74Z" style="opacity:0.2"></path><polygon points="297.49 250.93 303.88 244.69 310.63 248.43 302.59 253.75 297.49 250.93" style="fill:#fff;opacity:0.2"></polygon><polygon points="329.09 193.87 306.33 241.7 312.47 245.1 332.98 196.03 329.09 193.87" style="fill:#fff;opacity:0.2"></polygon><path d="M295.6,269.35l-12.89-14.54,21.06-9.95S313.84,259.44,307,266Z" style="fill:#ebb376"></path><path d="M283.77,234.67l8-2.24a6.73,6.73,0,0,1,7.92,3.62l4.11,8.81-21.06,9.95-3.56-11.7A6.73,6.73,0,0,1,283.77,234.67Z" style="fill:#ebb376"></path><path d="M178.15,275.92c13-.49,78,25,78,25l33.06-38.71s11.83-2.46,20.52,4.61c0,0-22.84,58.25-39.93,65.63-24.71,10.67-76.69-11.35-87.76-18.06S164.62,297.81,172,278.63Z" style="fill:#407BFF"></path><path d="M178.15,275.92c13-.49,78,25,78,25l33.06-38.71s11.83-2.46,20.52,4.61c0,0-22.84,58.25-39.93,65.63-24.71,10.67-76.69-11.35-87.76-18.06S164.62,297.81,172,278.63Z" style="fill:#fff;opacity:0.7000000000000001"></path><rect x="66.88" y="398.63" width="362.11" height="17.94" style="fill:#263238"></rect><rect x="66.88" y="398.63" width="362.11" height="17.94" style="fill:#fff;opacity:0.2"></rect><rect x="60.94" y="396.91" width="373.98" height="6.94" rx="2.02" style="fill:#263238"></rect><rect x="60.94" y="396.91" width="373.98" height="6.94" rx="2.02" style="fill:#fff;opacity:0.4"></rect></g><g id="freepik--bottle-2--inject-1"><path d="M402.32,316.54V265.15a.89.89,0,0,0-.9-.89H390.55a.89.89,0,0,0-.89.89v51.39a8.61,8.61,0,0,1-4.24,7.42l-4.68,2.76a9.46,9.46,0,0,0-4.65,8.15v62h39.8v-62a9.45,9.45,0,0,0-4.66-8.15L406.56,324A8.61,8.61,0,0,1,402.32,316.54Z" style="fill:#407BFF"></path><path d="M402.32,316.54V265.15a.89.89,0,0,0-.9-.89H390.55a.89.89,0,0,0-.89.89v51.39a8.61,8.61,0,0,1-4.24,7.42l-4.68,2.76a9.46,9.46,0,0,0-4.65,8.15v62h39.8v-62a9.45,9.45,0,0,0-4.66-8.15L406.56,324A8.61,8.61,0,0,1,402.32,316.54Z" style="fill:#fff;opacity:0.5"></path><path d="M410.22,328.44l-4.68-2.76a10.65,10.65,0,0,1-5.22-9.14V291.31h-8.66v25.23a10.65,10.65,0,0,1-5.22,9.14l-4.68,2.76a7.49,7.49,0,0,0-3.67,6.43v60h35.8v-60A7.51,7.51,0,0,0,410.22,328.44Z" style="fill:#407BFF;opacity:0.4"></path><rect x="388.87" y="267.6" width="14.24" height="2.74" rx="0.99" style="fill:#407BFF"></rect><rect x="388.87" y="267.6" width="14.24" height="2.74" rx="0.99" style="fill:#fff;opacity:0.6000000000000001"></rect><rect x="376.09" y="342.86" width="39.8" height="45.83" style="fill:#263238"></rect><rect x="376.09" y="382.06" width="39.8" height="4.15" style="fill:#fff;opacity:0.2"></rect><rect x="376.09" y="345.86" width="40.1" height="1.58" style="fill:#fff;opacity:0.2"></rect></g><g id="freepik--bottle-1--inject-1"><path d="M112.1,343.3V303H101V343.3a2.56,2.56,0,0,1-2.56,2.56h-5.4a5.49,5.49,0,0,0-5.49,5.49v45.56h38V351.35a5.49,5.49,0,0,0-5.49-5.49h-5.39A2.56,2.56,0,0,1,112.1,343.3Z" style="fill:#407BFF"></path><path d="M112.1,343.3V303H101V343.3a2.56,2.56,0,0,1-2.56,2.56h-5.4a5.49,5.49,0,0,0-5.49,5.49v45.56h38V351.35a5.49,5.49,0,0,0-5.49-5.49h-5.39A2.56,2.56,0,0,1,112.1,343.3Z" style="fill:#fff;opacity:0.30000000000000004"></path><rect x="92.16" y="358.4" width="28.81" height="28.81" style="fill:#fff;opacity:0.7000000000000001"></rect><path d="M119.47,385.71H93.66V359.9h25.81Zm-24.81-1h23.81V360.9H94.66Z" style="fill:#fff;opacity:0.7000000000000001"></path><rect x="100.38" y="304.1" width="12.36" height="3.3" rx="0.86" style="fill:#407BFF"></rect><rect x="100.38" y="304.1" width="12.36" height="3.3" rx="0.86" style="fill:#fff;opacity:0.5"></rect></g><g id="freepik--Glass--inject-1"><path d="M356.51,337.2a1.37,1.37,0,0,0-1.12-2.14H316.13A1.36,1.36,0,0,0,315,337.2L332.82,363V390.5l-9.29,4.08a1.22,1.22,0,0,0,.48,2.33H347.5a1.22,1.22,0,0,0,.49-2.33l-9.29-4.08V363Z" style="fill:#407BFF"></path><path d="M356.51,337.2a1.37,1.37,0,0,0-1.12-2.14H316.13A1.36,1.36,0,0,0,315,337.2L332.82,363V390.5l-9.29,4.08a1.22,1.22,0,0,0,.48,2.33H347.5a1.22,1.22,0,0,0,.49-2.33l-9.29-4.08V363Z" style="fill:#fff;opacity:0.7000000000000001"></path><path d="M321.26,342.74l13,18.89a1.8,1.8,0,0,0,1.48.78h0a1.77,1.77,0,0,0,1.47-.78l13-18.89Z" style="fill:#407BFF"></path><polygon points="345.53 336.6 335.88 361.49 335.88 390.8 343.57 395.36 347.54 395.36 336.83 390.5 336.83 361.69 352.46 336.6 345.53 336.6" style="fill:#fff;opacity:0.2"></polygon></g><g id="freepik--Ice--inject-1"><rect x="143.09" y="342.8" width="2.18" height="48.86" transform="translate(-87.4 47.83) rotate(-14.51)" style="fill:#407BFF"></rect><rect x="143.09" y="342.8" width="2.18" height="48.86" transform="translate(-87.4 47.83) rotate(-14.51)" style="fill:#fff;opacity:0.7000000000000001"></rect><rect x="132.91" y="322.81" width="7.12" height="29.27" rx="1.9" transform="translate(-80.19 44.96) rotate(-14.51)" style="fill:#407BFF"></rect><rect x="139.03" y="355.79" width="37.19" height="41.11" style="fill:#263238"></rect><rect x="139.03" y="355.79" width="37.19" height="41.11" style="fill:#fff;opacity:0.6000000000000001"></rect><rect x="162.37" y="358.45" width="8.13" height="36.91" style="fill:#fff;opacity:0.2"></rect></g></svg>
